<svg width="666" height="150" viewBox="0 0 666 150" fill="none" xmlns="http://www.w3.org/2000/svg">
<path d="M145.343 122.299V49.204H118.938V31.7363H191.947V49.204H164.761V122.299H145.343Z" fill="#3446EA"/>
<path d="M221.72 123.592C214.299 123.592 207.823 122.086 202.302 119.067C196.782 116.048 192.467 111.91 189.36 106.644C186.252 101.387 184.699 95.3488 184.699 88.5304C184.699 83.2728 185.558 78.4408 187.286 74.0423C189.013 69.6439 191.426 65.8287 194.534 62.589C197.641 59.3572 201.332 56.8505 205.599 55.0848C209.874 53.3191 214.512 52.4363 219.512 52.4363C224.173 52.4363 228.487 53.2797 232.454 54.9587C236.422 56.6377 239.852 59.0103 242.747 62.0766C245.641 65.1429 247.858 68.7374 249.411 72.8836C250.965 77.0219 251.651 81.5544 251.486 86.4652L251.359 92.9446H196.348L193.374 80.1119H236.224L234.15 83.2255V80.3799C233.977 78.0545 233.219 75.942 231.887 74.0423C230.546 72.1426 228.842 70.6765 226.776 69.6438C224.701 68.6112 222.375 68.091 219.788 68.091C215.986 68.091 212.776 68.8241 210.142 70.2902C207.508 71.7564 205.505 73.9162 204.124 76.7618C202.744 79.6074 202.05 83.0599 202.05 87.1115C202.05 91.1632 202.933 94.8285 204.708 97.8476C206.475 100.867 208.983 103.216 212.216 104.895C215.45 106.574 219.275 107.417 223.676 107.417C226.697 107.417 229.457 106.944 231.958 105.99C234.458 105.044 237.131 103.405 239.986 101.072L248.788 113.36C246.288 115.607 243.528 117.483 240.507 118.989C237.486 120.502 234.379 121.637 231.185 122.417C227.99 123.198 224.843 123.584 221.736 123.584L221.72 123.592Z" fill="#3446EA"/>
<path d="M291.623 123.592C285.061 123.592 279.193 122.039 274.019 118.933C268.837 115.828 264.76 111.603 261.786 106.258C258.805 100.914 257.322 94.8285 257.322 88.018C257.322 81.2075 258.813 75.2326 261.786 69.8409C264.76 64.4493 268.837 60.2006 274.019 57.0949C279.201 53.9891 285.061 52.4363 291.623 52.4363C297.751 52.4363 303.359 53.5556 308.454 55.8021C313.549 58.0486 317.516 61.1544 320.363 65.1193L310.268 77.282C309.061 75.6425 307.547 74.1605 305.74 72.8205C303.926 71.4805 301.963 70.4242 299.849 69.6517C297.735 68.8792 295.558 68.4851 293.311 68.4851C289.769 68.4851 286.646 69.3286 283.925 71.0075C281.204 72.6865 279.067 74.9961 277.521 77.9284C275.967 80.8607 275.194 84.2265 275.194 88.018C275.194 91.8095 275.991 95.0256 277.592 97.9185C279.185 100.811 281.37 103.137 284.13 104.902C286.891 106.668 289.998 107.559 293.453 107.559C295.692 107.559 297.806 107.236 299.794 106.589C301.781 105.943 303.658 104.973 305.425 103.681C307.192 102.388 308.808 100.835 310.275 99.0221L320.245 111.185C317.311 114.897 313.257 117.893 308.075 120.179C302.901 122.465 297.42 123.608 291.639 123.608L291.623 123.592Z" fill="#3446EA"/>
<path d="M328.771 122.299V26.5656H346.895V67.8385L343.267 69.3914C344.213 66.2857 345.917 63.4637 348.378 60.9177C350.838 58.3716 353.796 56.3221 357.243 54.7693C360.697 53.2164 364.317 52.4439 368.119 52.4439C373.293 52.4439 377.63 53.4765 381.124 55.5497C384.618 57.6228 387.253 60.7442 389.019 64.9299C390.786 69.1155 391.677 74.2707 391.677 80.3875V122.307H373.293V81.8142C373.293 78.7085 372.859 76.123 371.999 74.0499C371.132 71.9768 369.822 70.4476 368.048 69.4544C366.281 68.4612 364.096 68.0513 361.509 68.2248C359.435 68.2248 357.519 68.548 355.752 69.1943C353.985 69.8407 352.471 70.7708 351.225 71.9769C349.971 73.1829 348.977 74.5623 348.251 76.1152C347.518 77.668 347.147 79.347 347.147 81.16V122.299H328.763H328.771Z" fill="#3446EA"/>
<path d="M399.84 70.2901V53.8629H445.016V70.2901H399.84ZM412.656 122.299V36.5214H431.041V122.299H412.656Z" fill="#3446EA"/>
<path d="M478.805 123.592C473.11 123.592 467.976 122.039 463.401 118.933C458.827 115.828 455.199 111.603 452.525 106.258C449.852 100.914 448.511 94.7891 448.511 87.884C448.511 80.9789 449.867 74.8779 452.588 69.5808C455.309 64.2758 458.993 60.0902 463.654 57.0318C468.315 53.9734 473.623 52.4363 479.578 52.4363C482.945 52.4363 486.029 52.9329 488.837 53.9261C491.637 54.9193 494.098 56.2751 496.219 58.0013C498.333 59.7276 500.123 61.714 501.59 63.9527C503.057 66.1992 504.09 68.6112 504.698 71.1967L500.817 70.5504V53.863H519.068V122.299H500.557V105.872L504.698 105.486C504.004 107.898 502.884 110.184 501.33 112.344C499.776 114.503 497.852 116.419 495.572 118.098C493.285 119.777 490.722 121.117 487.867 122.11C485.02 123.103 481.999 123.6 478.805 123.6V123.592ZM483.852 107.677C487.307 107.677 490.328 106.857 492.914 105.218C495.501 103.578 497.513 101.269 498.932 98.2969C500.352 95.3252 501.07 91.849 501.07 87.884C501.07 83.9191 500.36 80.5927 498.932 77.6604C497.505 74.7281 495.501 72.4185 492.914 70.7395C490.328 69.0605 487.307 68.2171 483.852 68.2171C480.398 68.2171 477.527 69.0605 474.987 70.7395C472.44 72.4185 470.437 74.7281 468.97 77.6604C467.503 80.5927 466.769 83.998 466.769 87.884C466.769 91.7701 467.503 95.3252 468.97 98.2969C470.437 101.276 472.44 103.578 474.987 105.218C477.535 106.857 480.492 107.677 483.852 107.677Z" fill="#3446EA"/>
<path d="M534.329 122.299V26.5656H552.713V122.299H534.329Z" fill="#3446EA"/>
<path d="M568.117 122.299V26.5656H586.501V122.299H568.117ZM585.594 101.726L580.16 86.5911L612.52 53.8628H636.726L585.594 101.733V101.726ZM614.461 122.299L589.869 91.3758L602.812 81.026L636.599 122.299H614.461Z" fill="#3446EA"/>
<path d="M48.1594 127.809H29.9326L54.1456 22.049H72.3724L48.1594 127.809Z" fill="#DCDCE9"/>
<path d="M83.6355 127.809H65.4087L89.6217 22.049H107.849L83.6355 127.809Z" fill="#DCDCE9"/>
</svg>
