<svg width="157" height="157" viewBox="0 0 157 157" fill="none" xmlns="http://www.w3.org/2000/svg">
<path d="M78.6105 0C121.73 0 156.737 35.0075 156.737 78.1268V146.734C156.737 151.988 152.472 156.254 147.217 156.254H78.6105C35.4911 156.254 0.483643 121.246 0.483643 78.127C0.483643 35.0076 35.4911 0 78.6105 0Z" fill="#3446EA"/>
<path d="M45.5503 42.0254H27.5844C25.9647 42.0254 24.6516 43.3384 24.6516 44.9582V46.9343C24.6516 48.554 25.9647 49.8671 27.5844 49.8671H45.5503C47.17 49.8671 48.483 48.554 48.483 46.9343V44.9582C48.483 43.3384 47.17 42.0254 45.5503 42.0254Z" fill="white"/>
<path d="M56.2294 42.0254H74.1953C75.8142 42.0254 77.1285 43.3397 77.1285 44.9586V46.9343C77.1285 48.5529 75.8144 49.8671 74.1958 49.8671H56.2294C54.6111 49.8671 53.2971 48.5532 53.2971 46.9348V44.9577C53.2971 43.3393 54.6111 42.0254 56.2294 42.0254Z" fill="white"/>
<path d="M45.5503 53.9409H27.5844C25.9647 53.9409 24.6516 55.254 24.6516 56.8737V58.8498C24.6516 60.4696 25.9647 61.7826 27.5844 61.7826H45.5503C47.17 61.7826 48.483 60.4696 48.483 58.8498V56.8737C48.483 55.254 47.17 53.9409 45.5503 53.9409Z" fill="white"/>
<path d="M56.2294 53.9409H74.1953C75.8142 53.9409 77.1285 55.2553 77.1285 56.8742V58.8498C77.1285 60.4685 75.8144 61.7826 74.1958 61.7826H56.2294C54.6111 61.7826 53.2971 60.4687 53.2971 58.8503V56.8732C53.2971 55.2548 54.6111 53.9409 56.2294 53.9409Z" fill="white"/>
</svg>
