<svg width="157" height="157" viewBox="0 0 157 157" fill="none" xmlns="http://www.w3.org/2000/svg">
<path d="M78.3522 0C121.472 0 156.479 35.0075 156.479 78.1268V146.734C156.479 151.988 152.213 156.254 146.959 156.254H78.3522C35.2328 156.254 0.225342 121.246 0.225342 78.127C0.225342 35.0076 35.2328 0 78.3522 0Z" fill="#3446EA"/>
<path d="M41.2142 68.3541H36.0835C34.7076 68.3541 33.6885 67.0755 33.9954 65.7343L40.895 35.581C41.1178 34.6072 41.9841 33.9167 42.983 33.9167H48.1137C49.4896 33.9167 50.5086 35.1953 50.2018 36.5366L43.3022 66.6899C43.0794 67.6636 42.2131 68.3541 41.2142 68.3541Z" fill="white"/>
<path d="M62.4397 68.3541H57.3091C55.9332 68.3541 54.9141 67.0755 55.221 65.7343L62.1206 35.581C62.3434 34.6072 63.2097 33.9167 64.2086 33.9167H69.3393C70.7152 33.9167 71.7342 35.1953 71.4273 36.5366L64.5278 66.6899C64.305 67.6636 63.4387 68.3541 62.4397 68.3541Z" fill="white"/>
</svg>
