<svg width="157" height="157" viewBox="0 0 157 157" fill="none" xmlns="http://www.w3.org/2000/svg">
<path d="M78.1268 0C121.246 0 156.254 35.0075 156.254 78.1268V146.734C156.254 151.988 151.988 156.254 146.734 156.254H78.1268C35.0075 156.254 0 121.246 0 78.127C0 35.0076 35.0075 0 78.1268 0Z" fill="#3446EA"/>
<path d="M46.4408 47.1L45.83 46.7272C45.0369 46.2405 44.1007 46.0959 43.1942 46.3251C42.2896 46.5534 41.5012 47.147 41.0326 47.953C40.4878 48.8856 40.2005 48.9967 40.1206 48.985C39.8277 48.9497 39.1239 48.2664 38.6098 47.768C37.3835 46.5771 35.7044 44.9468 33.0696 44.6312C30.7565 44.3509 27.4086 44.9821 24.5897 49.5656C24.0997 50.3619 23.9528 51.3014 24.175 52.2093C24.3972 53.1153 24.9588 53.8763 25.7574 54.3532L26.3673 54.7177C27.1576 55.1904 28.0873 55.3252 28.9854 55.097C29.8919 54.8646 30.6524 54.2905 31.1284 53.4807C31.6862 52.5333 31.9819 52.4217 32.0469 52.4273C32.3407 52.4626 33.0445 53.146 33.5587 53.6448C34.7849 54.8357 36.464 56.466 39.0998 56.7816C39.3861 56.8165 39.6892 56.8365 40.0062 56.8365C42.0572 56.8365 45.0351 55.9765 47.5732 51.8788C48.0632 51.0876 48.2138 50.1528 47.9972 49.2477C47.7824 48.3454 47.2301 47.583 46.4408 47.1Z" fill="white"/>
<path d="M76.6427 49.2491C76.4288 48.3459 75.8756 47.583 75.0872 47.1014L74.4746 46.7263C73.6815 46.2405 72.7453 46.0973 71.8416 46.3251C70.9389 46.5515 70.1505 47.1451 69.6782 47.9535C69.1278 48.8972 68.8098 48.9878 68.767 48.985C68.4732 48.9497 67.7704 48.2668 67.2553 47.7676C66.029 46.5771 64.3499 44.9468 61.7151 44.6312C59.4011 44.3509 56.0541 44.9821 53.2352 49.5656C52.7452 50.3619 52.5983 51.3014 52.8205 52.2093C53.0427 53.1153 53.6052 53.8767 54.4038 54.3541L55.0128 54.7172C55.8059 55.1923 56.7356 55.3262 57.6318 55.0965C58.5392 54.8641 59.2997 54.2895 59.7739 53.4811C60.3317 52.5333 60.6404 52.4203 60.6934 52.4273C60.9853 52.4626 61.6882 53.1446 62.2042 53.6443C63.4295 54.8353 65.1095 56.466 67.7453 56.7816C68.0316 56.8165 68.3347 56.8365 68.6517 56.8365C70.7027 56.8365 73.6806 55.9765 76.2187 51.8788C76.7077 51.0881 76.8593 50.1542 76.6427 49.2491Z" fill="white"/>
</svg>
