<svg width="157" height="157" viewBox="0 0 157 157" fill="none" xmlns="http://www.w3.org/2000/svg">
<path d="M78.6315 0.110718C121.751 0.110718 156.758 35.1182 156.758 78.2375V146.844C156.758 152.099 152.493 156.365 147.238 156.365H78.6315C35.5121 156.365 0.504639 121.357 0.504639 78.2377C0.504639 35.1183 35.5121 0.110718 78.6315 0.110718Z" fill="#2EE3A2"/>
<path d="M49.5047 51.8755H39.4204C38.4276 51.8755 37.5819 51.3481 37.1118 50.5801C36.6041 49.7507 36.7085 48.6812 37.2471 47.8716L40.9437 42.3162C43.6405 38.2632 49.8829 39.4379 50.922 44.194L51.9439 48.8714C52.2796 50.4082 51.1155 51.8643 49.5425 51.8752L49.5047 51.8755Z" fill="white"/>
<path d="M73.4481 51.8755H63.3638C62.2467 51.8755 61.316 51.208 60.8968 50.2813C60.551 49.5165 60.6955 48.6165 61.1547 47.9139L64.8109 42.3201C67.4659 38.2579 73.6969 39.3702 74.7823 44.1002L75.8653 48.8192C76.2227 50.3766 75.0459 51.8645 73.4481 51.8755Z" fill="white"/>
</svg>
