<svg width="157" height="157" viewBox="0 0 157 157" fill="none" xmlns="http://www.w3.org/2000/svg">
<path d="M78.1268 0.110718C121.246 0.110718 156.254 35.1182 156.254 78.2375V146.844C156.254 152.099 151.988 156.365 146.734 156.365H78.1268C35.0075 156.365 0 121.357 0 78.2377C0 35.1183 35.0075 0.110718 78.1268 0.110718Z" fill="#2EE3A2"/>
<path d="M65.2216 61.8737C66.506 61.8737 67.5123 60.7694 67.3934 59.4905L66.8862 54.037L66.0964 54.0977L71.3119 57.6779C72.3635 58.3997 73.8074 58.0692 74.4402 56.9618L74.9639 56.0452C75.6117 54.9116 75.1251 53.4667 73.9236 52.9558L68.4656 50.6351L68.5263 51.1211L74.1097 48.5475C75.283 48.0066 75.7317 46.5702 75.0749 45.4577L74.5325 44.539C73.8832 43.439 72.4317 43.1299 71.3906 43.8699L65.9749 47.7192L66.8862 47.7799L67.4809 42.1721C67.6176 40.8836 66.6076 39.7608 65.3119 39.7608H63.9349C62.65 39.7608 61.6435 40.8658 61.7631 42.1451L62.3299 48.2051L63.1197 47.7799L58.0917 44.0197C57.0483 43.2394 55.5579 43.5419 54.9014 44.6674L54.374 45.5714C53.7226 46.6878 54.1796 48.1226 55.3566 48.6567L61.0541 51.2425V50.6351L55.5687 52.9493C54.355 53.4613 53.8686 54.9241 54.5341 56.0609L54.9836 56.8288C55.633 57.9383 57.0961 58.2483 58.1397 57.4977L63.1197 53.9156L62.2692 54.037L61.7213 59.4738C61.5918 60.7584 62.6003 61.8737 63.8915 61.8737H65.2216Z" fill="white"/>
<path d="M36.576 61.8737C37.8605 61.8737 38.8668 60.7694 38.7479 59.4905L38.2407 54.037L37.4509 54.0977L42.6664 57.6779C43.718 58.3997 45.1619 58.0692 45.7947 56.9618L46.3184 56.0452C46.9662 54.9116 46.4796 53.4667 45.278 52.9558L39.8201 50.6351L39.8808 51.1211L45.4642 48.5475C46.6375 48.0066 47.0862 46.5702 46.4294 45.4577L45.887 44.539C45.2377 43.439 43.7862 43.1299 42.7451 43.8699L37.3294 47.7192L38.2407 47.7799L38.8354 42.1721C38.9721 40.8836 37.9621 39.7608 36.6664 39.7608H35.2894C34.0045 39.7608 32.998 40.8658 33.1176 42.1451L33.6844 48.2051L34.4742 47.7799L29.4462 44.0197C28.4028 43.2394 26.9124 43.5419 26.2558 44.6674L25.7285 45.5714C25.0771 46.6878 25.5341 48.1226 26.7111 48.6567L32.4086 51.2425V50.6351L26.9231 52.9493C25.7095 53.4613 25.2231 54.9241 25.8886 56.0609L26.3381 56.8288C26.9875 57.9383 28.4506 58.2483 29.4942 57.4977L34.4742 53.9156L33.6237 54.037L33.0757 59.4738C32.9463 60.7584 33.9548 61.8737 35.246 61.8737H36.576Z" fill="white"/>
</svg>
