<svg width="157" height="157" viewBox="0 0 157 157" fill="none" xmlns="http://www.w3.org/2000/svg">
<path d="M78.8685 0.110718C121.988 0.110718 156.996 35.1182 156.996 78.2375V146.844C156.996 152.099 152.73 156.365 147.475 156.365H78.8685C35.7492 156.365 0.741699 121.357 0.741699 78.2377C0.741699 35.1183 35.7492 0.110718 78.8685 0.110718Z" fill="#2EE3A2"/>
<path d="M45.748 50.1723H37.7611C36.3852 50.1723 35.3662 48.8937 35.673 47.5525L38.5551 35.6917C38.7779 34.7179 39.6442 34.0275 40.6432 34.0275H48.6301C50.006 34.0275 51.0251 35.3061 50.7182 36.6473L47.8361 48.508C47.6133 49.4818 46.747 50.1723 45.748 50.1723Z" fill="white"/>
<path d="M66.9734 50.1723H58.9865C57.6106 50.1723 56.5915 48.8937 56.8984 47.5525L59.7804 35.6917C60.0032 34.7179 60.8696 34.0275 61.8685 34.0275H69.8554C71.2313 34.0275 72.2504 35.3061 71.9435 36.6473L69.0614 48.508C68.8386 49.4818 67.9723 50.1723 66.9734 50.1723Z" fill="white"/>
</svg>
