<svg width="157" height="157" viewBox="0 0 157 157" fill="none" xmlns="http://www.w3.org/2000/svg">
<path d="M78.8685 0.11084C121.988 0.11084 156.996 35.1183 156.996 78.2377V146.844C156.996 152.099 152.73 156.365 147.475 156.365H78.8685C35.7492 156.365 0.741699 121.357 0.741699 78.2378C0.741699 35.1185 35.7492 0.11084 78.8685 0.11084Z" fill="#8D3EFF"/>
<path d="M45.748 50.1724H37.7611C36.3852 50.1724 35.3662 48.8938 35.673 47.5526L38.5551 35.6918C38.7779 34.7181 39.6442 34.0276 40.6432 34.0276H48.6301C50.006 34.0276 51.0251 35.3062 50.7182 36.6474L47.8361 48.5081C47.6133 49.4819 46.747 50.1724 45.748 50.1724Z" fill="white"/>
<path d="M66.9734 50.1724H58.9865C57.6106 50.1724 56.5915 48.8938 56.8984 47.5526L59.7804 35.6918C60.0032 34.7181 60.8696 34.0276 61.8685 34.0276H69.8554C71.2313 34.0276 72.2504 35.3062 71.9435 36.6474L69.0614 48.5081C68.8386 49.4819 67.9723 50.1724 66.9734 50.1724Z" fill="white"/>
</svg>
