<svg width="157" height="157" viewBox="0 0 157 157" fill="none" xmlns="http://www.w3.org/2000/svg">
<path d="M78.1268 0C121.246 0 156.254 35.0075 156.254 78.1268V146.734C156.254 151.988 151.988 156.254 146.734 156.254H78.1268C35.0075 156.254 0 121.246 0 78.127C0 35.0076 35.0075 0 78.1268 0Z" fill="#8D3EFF"/>
<path d="M46.4408 47.1002L45.83 46.7273C45.0369 46.2406 44.1007 46.0961 43.1942 46.3252C42.2896 46.5535 41.5012 47.1471 41.0326 47.9532C40.4878 48.8857 40.2005 48.9968 40.1206 48.9852C39.8277 48.9498 39.1239 48.2665 38.6098 47.7682C37.3835 46.5772 35.7044 44.9469 33.0696 44.6313C30.7565 44.351 27.4086 44.9823 24.5897 49.5658C24.0997 50.3621 23.9528 51.3015 24.175 52.2094C24.3972 53.1154 24.9588 53.8764 25.7574 54.3533L26.3673 54.7178C27.1576 55.1905 28.0873 55.3254 28.9854 55.0971C29.8919 54.8647 30.6524 54.2906 31.1284 53.4808C31.6862 52.5334 31.9819 52.4219 32.0469 52.4274C32.3407 52.4628 33.0445 53.1461 33.5587 53.6449C34.7849 54.8359 36.464 56.4661 39.0998 56.7818C39.3861 56.8166 39.6892 56.8366 40.0062 56.8366C42.0572 56.8366 45.0351 55.9766 47.5732 51.8789C48.0632 51.0877 48.2138 50.1529 47.9972 49.2478C47.7824 48.3455 47.2301 47.5831 46.4408 47.1002Z" fill="white"/>
<path d="M76.6427 49.2492C76.4288 48.346 75.8756 47.5831 75.0872 47.1015L74.4746 46.7264C73.6815 46.2406 72.7453 46.0975 71.8416 46.3252C70.9389 46.5516 70.1505 47.1452 69.6782 47.9536C69.1278 48.8973 68.8098 48.9879 68.767 48.9852C68.4732 48.9498 67.7704 48.2669 67.2553 47.7677C66.029 46.5772 64.3499 44.9469 61.7151 44.6313C59.4011 44.351 56.0541 44.9823 53.2352 49.5658C52.7452 50.3621 52.5983 51.3015 52.8205 52.2094C53.0427 53.1154 53.6052 53.8769 54.4038 54.3543L55.0128 54.7173C55.8059 55.1924 56.7356 55.3263 57.6318 55.0966C58.5392 54.8642 59.2997 54.2897 59.7739 53.4813C60.3317 52.5334 60.6404 52.4205 60.6934 52.4274C60.9853 52.4628 61.6882 53.1447 62.2042 53.6444C63.4295 54.8354 65.1095 56.4661 67.7453 56.7818C68.0316 56.8166 68.3347 56.8366 68.6517 56.8366C70.7027 56.8366 73.6806 55.9766 76.2187 51.8789C76.7077 51.0882 76.8593 50.1543 76.6427 49.2492Z" fill="white"/>
</svg>
