<svg width="157" height="157" viewBox="0 0 157 157" fill="none" xmlns="http://www.w3.org/2000/svg">
<path d="M78.8685 0C121.988 0 156.996 35.0075 156.996 78.1268V146.734C156.996 151.988 152.73 156.254 147.475 156.254H78.8685C35.7491 156.254 0.741699 121.246 0.741699 78.127C0.741699 35.0076 35.7491 0 78.8685 0Z" fill="#FF445A"/>
<path d="M45.8088 46.7854H40.7465V41.7236C40.7465 40.1063 39.4309 38.7908 37.8132 38.7908H35.8376C34.2199 38.7908 32.9043 40.1063 32.9043 41.7236V46.7854H27.8429C26.2252 46.7854 24.9097 48.101 24.9097 49.7182V51.6943C24.9097 53.3116 26.2252 54.6271 27.8429 54.6271H32.9043V59.6894C32.9043 61.3067 34.2199 62.6222 35.8376 62.6222H37.8132C39.4309 62.6222 40.7465 61.3067 40.7465 59.6894V54.6271H45.8088C47.4255 54.6271 48.7411 53.3116 48.7411 51.6943V49.7182C48.7411 48.101 47.4255 46.7854 45.8088 46.7854Z" fill="white"/>
<path d="M74.4543 46.7854H69.392V41.7236C69.392 40.1063 68.0764 38.7908 66.4596 38.7908H64.4831C62.8663 38.7908 61.5507 40.1063 61.5507 41.7236V46.7854H56.4884C54.8707 46.7854 53.5552 48.101 53.5552 49.7182V51.6943C53.5552 53.3116 54.8707 54.6271 56.4884 54.6271H61.5507V59.6894C61.5507 61.3067 62.8663 62.6222 64.4831 62.6222H66.4596C68.0764 62.6222 69.392 61.3067 69.392 59.6894V54.6271H74.4543C76.0711 54.6271 77.3866 53.3116 77.3866 51.6943V49.7182C77.3866 48.101 76.0711 46.7854 74.4543 46.7854Z" fill="white"/>
</svg>
