<svg width="157" height="157" viewBox="0 0 157 157" fill="none" xmlns="http://www.w3.org/2000/svg">
<path d="M78.6105 0C121.73 0 156.737 35.0075 156.737 78.1268V146.734C156.737 151.988 152.472 156.254 147.217 156.254H78.6105C35.4911 156.254 0.483643 121.246 0.483643 78.127C0.483643 35.0076 35.4911 0 78.6105 0Z" fill="#FF445A"/>
<path d="M45.5503 42.0253H27.5844C25.9647 42.0253 24.6516 43.3383 24.6516 44.9581V46.9342C24.6516 48.5539 25.9647 49.867 27.5844 49.867H45.5503C47.17 49.867 48.483 48.5539 48.483 46.9342V44.9581C48.483 43.3383 47.17 42.0253 45.5503 42.0253Z" fill="white"/>
<path d="M56.2294 42.0253H74.1953C75.8142 42.0253 77.1285 43.3396 77.1285 44.9585V46.9342C77.1285 48.5528 75.8144 49.867 74.1958 49.867H56.2294C54.6111 49.867 53.2971 48.553 53.2971 46.9346V44.9576C53.2971 43.3392 54.6111 42.0253 56.2294 42.0253Z" fill="white"/>
<path d="M45.5503 53.941H27.5844C25.9647 53.941 24.6516 55.2541 24.6516 56.8738V58.8499C24.6516 60.4697 25.9647 61.7827 27.5844 61.7827H45.5503C47.17 61.7827 48.483 60.4697 48.483 58.8499V56.8738C48.483 55.2541 47.17 53.941 45.5503 53.941Z" fill="white"/>
<path d="M56.2294 53.941H74.1953C75.8142 53.941 77.1285 55.2554 77.1285 56.8743V58.8499C77.1285 60.4686 75.8144 61.7827 74.1958 61.7827H56.2294C54.6111 61.7827 53.2971 60.4688 53.2971 58.8504V56.8734C53.2971 55.255 54.6111 53.941 56.2294 53.941Z" fill="white"/>
</svg>
