<svg width="157" height="157" viewBox="0 0 157 157" fill="none" xmlns="http://www.w3.org/2000/svg">
<path d="M78.6315 0.11084C121.751 0.11084 156.758 35.1183 156.758 78.2377V146.844C156.758 152.099 152.493 156.365 147.238 156.365H78.6315C35.5121 156.365 0.504639 121.357 0.504639 78.2378C0.504639 35.1185 35.5121 0.11084 78.6315 0.11084Z" fill="#FF445A"/>
<path d="M49.5047 51.8755H39.4204C38.4276 51.8755 37.5819 51.3482 37.1118 50.5801C36.6041 49.7508 36.7085 48.6813 37.2471 47.8717L40.9437 42.3162C43.6405 38.2633 49.8829 39.438 50.922 44.194L51.9439 48.8714C52.2796 50.4083 51.1155 51.8644 49.5425 51.8753L49.5047 51.8755Z" fill="white"/>
<path d="M73.4481 51.8757H63.3638C62.2467 51.8757 61.316 51.2082 60.8968 50.2814C60.551 49.5166 60.6955 48.6167 61.1547 47.9141L64.8109 42.3202C67.4659 38.258 73.6969 39.3704 74.7823 44.1003L75.8653 48.8193C76.2227 50.3767 75.0459 51.8646 73.4481 51.8757Z" fill="white"/>
</svg>
