<svg width="157" height="157" viewBox="0 0 157 157" fill="none" xmlns="http://www.w3.org/2000/svg">
<path d="M78.1268 0.11084C121.246 0.11084 156.254 35.1183 156.254 78.2377V146.844C156.254 152.099 151.988 156.365 146.734 156.365H78.1268C35.0075 156.365 0 121.357 0 78.2378C0 35.1185 35.0075 0.11084 78.1268 0.11084Z" fill="#FF445A"/>
<path d="M65.2216 61.8739C66.506 61.8739 67.5123 60.7696 67.3934 59.4907L66.8862 54.0372L66.0964 54.0979L71.3119 57.6781C72.3635 58.3999 73.8074 58.0694 74.4402 56.962L74.9639 56.0454C75.6117 54.9118 75.1251 53.4668 73.9236 52.956L68.4656 50.6353L68.5263 51.1213L74.1097 48.5477C75.283 48.0068 75.7317 46.5704 75.0749 45.4579L74.5325 44.5391C73.8832 43.4391 72.4317 43.1301 71.3906 43.8701L65.9749 47.7193L66.8862 47.7801L67.4809 42.1723C67.6176 40.8838 66.6076 39.761 65.3119 39.761H63.9349C62.65 39.761 61.6435 40.866 61.7631 42.1453L62.3299 48.2053L63.1197 47.7801L58.0917 44.0199C57.0483 43.2396 55.5579 43.5421 54.9014 44.6675L54.374 45.5716C53.7226 46.688 54.1796 48.1227 55.3566 48.6569L61.0541 51.2427V50.6353L55.5687 52.9495C54.355 53.4615 53.8686 54.9242 54.5341 56.0611L54.9836 56.829C55.633 57.9384 57.0961 58.2485 58.1397 57.4979L63.1197 53.9157L62.2692 54.0372L61.7213 59.474C61.5918 60.7586 62.6003 61.8739 63.8915 61.8739H65.2216Z" fill="white"/>
<path d="M36.576 61.8739C37.8605 61.8739 38.8668 60.7696 38.7479 59.4907L38.2407 54.0372L37.4509 54.0979L42.6664 57.6781C43.718 58.3999 45.1619 58.0694 45.7947 56.962L46.3184 56.0454C46.9662 54.9118 46.4796 53.4668 45.278 52.956L39.8201 50.6353L39.8808 51.1213L45.4642 48.5477C46.6375 48.0068 47.0862 46.5704 46.4294 45.4579L45.887 44.5391C45.2377 43.4391 43.7862 43.1301 42.7451 43.8701L37.3294 47.7193L38.2407 47.7801L38.8354 42.1723C38.9721 40.8838 37.9621 39.761 36.6664 39.761H35.2894C34.0045 39.761 32.998 40.866 33.1176 42.1453L33.6844 48.2053L34.4742 47.7801L29.4462 44.0199C28.4028 43.2396 26.9124 43.5421 26.2558 44.6675L25.7285 45.5716C25.0771 46.688 25.5341 48.1227 26.7111 48.6569L32.4086 51.2427V50.6353L26.9231 52.9495C25.7095 53.4615 25.2231 54.9242 25.8886 56.0611L26.3381 56.829C26.9875 57.9384 28.4506 58.2485 29.4942 57.4979L34.4742 53.9157L33.6237 54.0372L33.0757 59.474C32.9463 60.7586 33.9548 61.8739 35.246 61.8739H36.576Z" fill="white"/>
</svg>
