<svg width="25" height="27" viewBox="0 0 25 27" fill="none" xmlns="http://www.w3.org/2000/svg">
<path d="M17.8325 14.2923C13.7734 14.5204 13.0216 15.2514 11.0898 20.813C11.6069 14.9482 11.2207 13.9733 7.61151 12.1018C11.6707 11.8737 12.4224 11.1427 14.3543 5.58105C13.8372 11.4459 14.2234 12.4208 17.8325 14.2923Z" fill="#3446EA"/>
<path d="M10.8194 22.0748C10.1735 21.9364 9.72672 21.3444 9.78612 20.692C10.2937 14.9466 9.85427 14.7204 7.00739 13.2445C6.48624 12.9745 6.20889 12.3924 6.33003 11.8272C6.45118 11.2619 6.94271 10.8446 7.52875 10.8119C10.7315 10.6273 11.225 10.601 13.1155 5.15722C13.3276 4.54281 13.9788 4.18089 14.6247 4.31931C15.2705 4.45773 15.7173 5.0497 15.6579 5.7021C15.1504 11.4476 15.5898 11.6737 18.4367 13.1496C18.9578 13.4197 19.2352 14.0017 19.114 14.567C18.9929 15.1322 18.5013 15.5495 17.9153 15.5823C14.7136 15.7618 14.219 15.7931 12.3286 21.2369C12.1165 21.8513 11.4652 22.2133 10.8194 22.0748ZM10.9792 12.8236C11.6524 13.4852 12.071 14.2083 12.3132 15.1049C12.9003 14.3914 13.5797 13.8982 14.4648 13.5706C13.7917 12.909 13.373 12.1858 13.1309 11.2893C12.5437 12.0028 11.8644 12.4959 10.9792 12.8236Z" fill="#3446EA"/>
</svg>
