<svg width="319" height="270" viewBox="0 0 319 270" fill="none" xmlns="http://www.w3.org/2000/svg">
<g opacity="0.5">
<path d="M20 38.7812C20 37.6767 20.8954 36.7812 22 36.7812H92.6782C103.724 36.7812 112.678 45.7356 112.678 56.7812V57.328C112.678 68.3737 103.724 77.328 92.6782 77.328H40C28.9543 77.328 20 68.3737 20 57.328V38.7812Z" fill="#EDEFFF"/>
<circle opacity="0.2" cx="46" cy="57" r="4" fill="#3446EA"/>
<circle opacity="0.2" cx="66" cy="57" r="4" fill="#3446EA"/>
<circle opacity="0.2" cx="86" cy="57" r="4" fill="#3446EA"/>
</g>
<g opacity="0.5">
<path d="M151.294 164.697C151.294 153.767 160.155 144.906 171.085 144.906H297C298.105 144.906 299 145.802 299 146.906V164.488C299 175.533 290.046 184.488 279 184.488H171.085C160.155 184.488 151.294 175.627 151.294 164.697Z" fill="#ECECF2"/>
<circle opacity="0.2" cx="234" cy="165" r="4" fill="#71717E"/>
<circle opacity="0.2" cx="254" cy="165" r="4" fill="#71717E"/>
<circle opacity="0.2" cx="274" cy="165" r="4" fill="#71717E"/>
</g>
<g opacity="0.5">
<rect x="20" y="90.8433" width="145.775" height="40.5467" rx="20" fill="#EDEFFF"/>
</g>
<path d="M66.9592 108.093C55.348 108.093 45.9232 117.521 45.9232 129.133V147.609C45.9232 149.024 47.0715 150.173 48.4864 150.173H66.9566C78.5678 150.175 87.9926 140.748 87.9926 129.133C87.9926 117.521 78.5678 108.093 66.9592 108.093Z" fill="#3446EA"/>
<path d="M76.9581 126.502H78.3396C78.7113 126.502 78.9856 126.158 78.901 125.797L77.0427 117.677C76.9837 117.415 76.7505 117.228 76.4813 117.228H75.0998C74.7281 117.228 74.4539 117.572 74.5385 117.933L76.3968 126.053C76.4557 126.315 76.689 126.502 76.9581 126.502Z" fill="white"/>
<path d="M71.2423 126.502H72.6238C72.9955 126.502 73.2697 126.158 73.1851 125.797L71.3269 117.677C71.2679 117.415 71.0346 117.228 70.7655 117.228H69.384C69.0123 117.228 68.738 117.572 68.8226 117.933L70.6809 126.053C70.7399 126.315 70.9731 126.502 71.2423 126.502Z" fill="white"/>
<path d="M246.483 246.373C228.195 254.27 198.553 256.732 177.657 250.42C173.005 249.015 169.661 244.955 169.078 240.144C164.232 200.15 163.321 156.384 164.908 110.225L214.475 103.71C253.817 108.253 246.596 152.944 253.949 233.912C254.433 239.243 251.409 244.246 246.483 246.373Z" fill="#3446EA"/>
<path d="M173.174 124.094C169.637 108.756 158.112 111.967 150.958 113.393C143.804 114.82 139.512 134.082 129.855 154.77C121.601 172.451 99.5144 182.57 93.2648 185.139C91.4822 185.117 89.7931 185.488 88.2963 186.35C81.4876 190.27 81.112 202.333 87.4576 213.294C93.8031 224.254 103.788 228.432 111.276 226.041C136.202 218.082 164.491 171.736 168.127 161.903C171.817 151.922 176.711 139.432 173.174 124.094Z" fill="#3446EA"/>
<path d="M153.745 112.107C153.745 112.107 156.503 163.729 178.321 190.837C200.14 217.946 217.699 215.216 227.848 213.076C237.997 210.936 244.238 194.859 231.881 185.845C223.792 179.945 213.116 169.905 205.273 153.007C197.382 136.005 195.876 114.712 195.876 114.712L153.745 112.107Z" fill="#5565F3"/>
<path d="M242.188 90.0302C239.249 98.081 229.207 102.604 221.136 99.7812C215.104 97.672 214.595 87.9955 218.891 80.5756C223.187 73.1557 231.157 69.7243 236.692 72.9114C242.228 76.0985 245.118 82.0046 242.188 90.0302Z" fill="#EBEDFF"/>
<path d="M231.304 66.5495C231.304 93.928 209.051 116.11 181.607 116.11C154.163 116.11 131.909 93.928 131.909 66.5495C131.909 49.4393 140.598 34.3617 153.827 25.4661C154.741 24.8374 155.665 24.2611 156.621 23.7058C163.966 19.4413 172.497 17 181.607 17C183.193 17 184.769 17.0734 186.314 17.2201C187.701 17.3458 189.077 17.5344 190.433 17.7858C196.737 18.907 202.641 21.2225 207.884 24.4917C208.851 25.0888 209.797 25.728 210.721 26.3986C216.437 30.5268 221.239 35.8391 224.769 41.9791C227.648 46.9875 229.665 52.5512 230.642 58.4712C231.084 61.1011 231.304 63.7939 231.304 66.5495Z" fill="#EBEDFF"/>
<path d="M192.27 117.317C192.27 117.317 157.933 123.47 147.203 113.572C136.472 103.674 142.106 101.801 147.203 101.266C152.3 100.731 155.308 109.576 166.68 110.236C178.053 110.897 190.661 110.629 193.88 113.037C193.88 113.037 195.649 107.484 201.928 107.954C208.206 108.423 204.074 115.712 201.928 116.113C199.782 116.515 192.27 117.317 192.27 117.317Z" fill="#DCDCE9"/>
<path d="M149.885 75.9267C152.214 75.9267 154.103 74.0437 154.103 71.7209C154.103 69.3981 152.214 67.5151 149.885 67.5151C147.556 67.5151 145.668 69.3981 145.668 71.7209C145.668 74.0437 147.556 75.9267 149.885 75.9267Z" fill="#060E56"/>
<path d="M170.18 80.1323C172.509 80.1323 174.398 78.2493 174.398 75.9265C174.398 73.6037 172.509 71.7207 170.18 71.7207C167.851 71.7207 165.963 73.6037 165.963 75.9265C165.963 78.2493 167.851 80.1323 170.18 80.1323Z" fill="#060E56"/>
<path d="M164.207 93.3245C164.207 93.3245 164.976 101.425 171.769 101.175C179.012 100.909 178.142 93.062 178.142 93.062" stroke="#060E56" stroke-width="3" stroke-miterlimit="10" stroke-linecap="round"/>
<path d="M190.433 17.7858C177.583 29.7096 171.499 43.7079 171.426 43.886C170.932 45.0386 170.291 46.0759 169.513 46.977C167.212 49.6908 163.808 51.2415 160.278 51.2415C158.723 51.2415 157.136 50.9376 155.613 50.2984C149.477 47.7314 146.577 40.7113 149.13 34.5817C149.309 34.1731 150.822 30.6211 153.827 25.4661C154.741 24.8374 155.665 24.2611 156.621 23.7058C163.966 19.4413 172.497 17 181.607 17C183.193 17 184.769 17.0734 186.314 17.2201C187.701 17.3458 189.077 17.5344 190.433 17.7858Z" fill="#060E56"/>
<path d="M210.721 26.3987C198.565 38.0815 192.807 51.3464 192.734 51.5245C192.24 52.6666 191.599 53.7039 190.832 54.6155C188.531 57.3187 185.127 58.8799 181.586 58.8799C180.031 58.8799 178.444 58.5761 176.921 57.937C172.35 56.0195 169.576 51.6293 169.513 46.9771C169.492 45.395 169.786 43.7814 170.438 42.2202C170.764 41.4554 175.712 29.8355 186.314 17.2202C187.701 17.3459 189.077 17.5345 190.432 17.786C196.737 18.9071 202.641 21.2227 207.884 24.4918C208.851 25.089 209.797 25.7282 210.721 26.3987Z" fill="#060E56"/>
<path d="M224.769 41.9792C217.593 50.9796 214.115 58.9322 214.062 59.0685C212.129 63.6996 207.632 66.4867 202.904 66.4867C201.349 66.4867 199.784 66.1934 198.26 65.5646C193.679 63.6577 190.895 59.2675 190.832 54.6154C190.79 53.0123 191.084 51.3777 191.746 49.806C192.072 49.0412 197.094 37.2327 207.884 24.4917C208.851 25.0889 209.797 25.7281 210.721 26.3986C216.437 30.5269 221.239 35.8391 224.769 41.9792Z" fill="#060E56"/>
<path d="M109.525 223.018C115.297 219.695 115.615 209.47 110.236 200.179C104.857 190.888 95.8183 186.05 90.0469 189.373C84.2754 192.696 83.9571 202.922 89.3359 212.212C94.7147 221.503 103.754 226.341 109.525 223.018Z" fill="#060E56"/>
<path d="M77.7365 165.137L38.3691 160.575C36.3198 160.338 34.4371 161.726 34.0645 163.75C33.852 164.904 34.1708 166.092 34.9328 166.986L54.2712 189.668C54.9135 190.422 55.8184 190.904 56.8033 191.018L90.3753 194.908C92.4246 195.145 94.3074 193.757 94.68 191.733L94.7411 191.402C94.9178 190.442 94.728 189.451 94.209 188.624L80.6049 166.945C79.9737 165.939 78.9183 165.274 77.7365 165.137Z" fill="#060E56"/>
<path d="M91.5832 196.949C90.4745 202.423 80.3002 201.629 69.3521 199.424C58.404 197.219 48.535 191.32 49.6436 185.845C50.7523 180.371 62.4189 177.395 73.367 179.6C84.3152 181.805 92.6919 191.475 91.5832 196.949Z" fill="#DCDCE9"/>
<path d="M50.6236 188.357C52.8537 187.417 53.7202 184.434 52.5589 181.696C51.3976 178.957 48.6483 177.499 46.4182 178.44C44.188 179.38 43.3215 182.363 44.4828 185.101C45.6441 187.84 48.3934 189.298 50.6236 188.357Z" fill="#DCDCE9"/>
</svg>
