<svg width="24" height="24" viewBox="0 0 24 24" fill="none" xmlns="http://www.w3.org/2000/svg">
<path fill-rule="evenodd" clip-rule="evenodd" d="M11.6298 3.5C11.0692 3.5 10.5343 3.73529 10.1555 4.14855L8.45833 6H4.5C3.39543 6 2.5 6.89543 2.5 8V18.5C2.5 19.6046 3.39543 20.5 4.5 20.5H19.5C20.6046 20.5 21.5 19.6046 21.5 18.5V8C21.5 6.89543 20.6046 6 19.5 6H18.5417L16.8445 4.14855C16.4657 3.73529 15.9308 3.5 15.3702 3.5H11.6298ZM13.4999 10.35C12.0363 10.35 10.8499 11.5365 10.8499 13C10.8499 14.4636 12.0363 15.65 13.4999 15.65C14.9635 15.65 16.1499 14.4636 16.1499 13C16.1499 11.5365 14.9635 10.35 13.4999 10.35ZM9.1499 13C9.1499 10.5976 11.0975 8.65002 13.4999 8.65002C15.9023 8.65002 17.8499 10.5976 17.8499 13C17.8499 15.4025 15.9023 17.35 13.4999 17.35C11.0975 17.35 9.1499 15.4025 9.1499 13ZM6.5 10.5C7.05228 10.5 7.5 10.0523 7.5 9.5C7.5 8.94772 7.05228 8.5 6.5 8.5C5.94772 8.5 5.5 8.94772 5.5 9.5C5.5 10.0523 5.94772 10.5 6.5 10.5Z" fill="#42424A"/>
</svg>
