<svg width="53" height="29" viewBox="0 0 53 29" fill="none" xmlns="http://www.w3.org/2000/svg">
<rect width="53" height="29" rx="8" fill="#EDEFFF"/>
<path d="M17.2227 9.44922V15.7422H15.9219V13.1523H14.1172V12.0859H15.9219V9.44922H17.2227ZM8.31641 14.6875C10.0215 14.1016 10.918 12.6777 10.918 11.2773V11.1953H8.71484V10.1406H14.4336V11.1953H12.2422V11.2656C12.2422 12.5547 13.0977 13.8555 14.7383 14.4062L14.082 15.4375C12.9043 15.0391 12.0723 14.2305 11.6035 13.2344C11.1406 14.3594 10.2559 15.2734 8.99609 15.7188L8.31641 14.6875ZM10.0391 18.0273C10.0273 16.7559 11.4043 16.0117 13.6367 16.0117C15.8809 16.0117 17.252 16.7559 17.2578 18.0273C17.252 19.2988 15.8809 20.0371 13.6367 20.043C11.4043 20.0371 10.0273 19.2988 10.0391 18.0273ZM11.3281 18.0273C11.3223 18.6836 12.166 19.041 13.6367 19.0352C15.1191 19.041 15.957 18.6836 15.957 18.0273C15.957 17.3652 15.1191 17.0078 13.6367 17.0078C12.166 17.0078 11.3223 17.3652 11.3281 18.0273ZM26.8381 9.44922V11.8047H28.3147V12.8828H26.8381V15.1094H25.5373V9.44922H26.8381ZM18.928 14.8281V10.1055H23.6389V11.1602H20.217V13.7617C22.2092 13.7559 23.3166 13.6973 24.5764 13.4219L24.717 14.4766C23.3284 14.7637 22.0979 14.8223 19.7834 14.8281H18.928ZM19.9709 19.8906V15.6367H21.2717V16.7266H25.5373V15.6367H26.8381V19.8906H19.9709ZM21.2717 18.8359H25.5373V17.7578H21.2717V18.8359Z" fill="#3446EA"/>
<path d="M34.6667 14.9462L37.4624 17.8334L43.3334 11.8334" stroke="#3446EA" stroke-width="2" stroke-linecap="round" stroke-linejoin="round"/>
</svg>
