<svg width="24" height="24" viewBox="0 0 24 24" fill="none" xmlns="http://www.w3.org/2000/svg">
<circle cx="12" cy="12" r="11" fill="#ECECF2"/>
<path fill-rule="evenodd" clip-rule="evenodd" d="M12.0675 19.2C11.2719 19.2 10.6269 18.555 10.6269 17.7594C10.6269 17.7352 10.6275 17.7111 10.6287 17.6871L7.39422 16.0029C7.14017 16.2275 6.80626 16.3638 6.44051 16.3638C5.64493 16.3638 4.99999 15.7189 4.99999 14.9233C4.99999 14.3205 5.37017 13.8043 5.89558 13.5894L5.89558 10.4052C5.37017 10.1904 4.99999 9.67408 4.99999 9.07135C4.99999 8.27576 5.64493 7.63082 6.44051 7.63082C6.73862 7.63082 7.01557 7.72137 7.24537 7.87646L10.5829 6.13861C10.6101 5.36688 11.2442 4.74957 12.0226 4.74957C12.7874 4.74957 13.413 5.3456 13.4602 6.09851L16.8084 7.84187C17.0271 7.70799 17.2843 7.63082 17.5595 7.63082C18.3551 7.63082 19 8.27576 19 9.07135C19 9.63621 18.6749 10.1251 18.2016 10.3612L18.2016 13.6334C18.6749 13.8695 19 14.3584 19 14.9233C19 15.7189 18.3551 16.3638 17.5595 16.3638C17.207 16.3638 16.884 16.2372 16.6337 16.027L13.5044 17.6564C13.5068 17.6904 13.508 17.7248 13.508 17.7594C13.508 18.555 12.863 19.2 12.0675 19.2ZM12.87 16.563L16.1199 14.8708C16.14 14.31 16.4806 13.8309 16.9641 13.6112L16.9641 10.3835C16.8515 10.3323 16.7466 10.267 16.6518 10.19L13.4597 11.8521C13.4619 11.8852 13.4631 11.9186 13.4631 11.9523C13.4631 12.5091 13.1472 12.9921 12.6848 13.2319V16.4575C12.7493 16.4882 12.8112 16.5235 12.87 16.563ZM11.4244 16.4701V13.2631C10.9274 13.0359 10.582 12.5344 10.582 11.9523C10.582 11.9137 10.5836 11.8755 10.5865 11.8377L7.37659 10.1663C7.30167 10.2304 7.2201 10.287 7.13305 10.3348V13.6598C7.54661 13.887 7.83656 14.3113 7.87636 14.8063L11.2585 16.5673C11.3114 16.5314 11.3668 16.4988 11.4244 16.4701ZM16.1254 8.93395C16.122 8.97012 16.1199 9.00668 16.1192 9.04358L12.8276 10.7575C12.5978 10.6023 12.3207 10.5117 12.0226 10.5117C11.7386 10.5117 11.4738 10.5939 11.2507 10.7358L7.87818 8.97978L7.8776 8.97095L11.0975 7.29438C11.3478 7.50425 11.6704 7.63063 12.0226 7.63063C12.3799 7.63063 12.7069 7.5005 12.9587 7.28505L16.1254 8.93395Z" fill="#A2A2B2"/>
</svg>
