<svg width="145" height="126" viewBox="0 0 145 126" fill="none" xmlns="http://www.w3.org/2000/svg">
<path d="M39 34C39 35.1046 39.8954 36 41 36L127 36C136.941 36 145 27.9411 145 18V18C145 8.05887 136.941 -8.56229e-06 127 -7.6932e-06L59 -1.74846e-06C47.9543 -7.8281e-07 39 8.95431 39 20L39 34Z" fill="#EDEFFF"/>
<path d="M55.2198 13.0469C57.4932 13.0527 59.1748 14.1836 59.169 15.9062C59.1748 17.4941 57.8096 18.5547 55.8643 18.748V20.6875H60.083V21.7539H50.4034V20.6875H54.5752V18.748C52.6534 18.5547 51.2881 17.4941 51.294 15.9062C51.2881 14.1836 52.9639 13.0527 55.2198 13.0469ZM52.5713 15.9062C52.5655 17.0488 53.6729 17.7344 55.2198 17.7344C56.7901 17.7344 57.8916 17.0488 57.8916 15.9062C57.8916 14.7988 56.7901 14.0957 55.2198 14.1016C53.6729 14.0957 52.5655 14.7988 52.5713 15.9062ZM70.2024 18.707V19.7266H67.8704V23.043H66.5579V19.7266H64.179V23.043H62.8782V19.7266H60.5227V18.707H70.2024ZM61.6595 13.8672V12.8008H69.0774V15.7656H62.9954V16.7734H69.3118V17.8281H61.6829V14.793H67.7415V13.8672H61.6595ZM78.9624 12.4492V16.5859H80.5327V17.6758H78.9624V23.0195H77.6616V12.4492H78.9624ZM70.607 20.125C73.1851 18.8359 74.5796 17.043 74.8374 14.6289H71.1812V13.5508H76.1616C76.1558 16.6621 74.8667 19.3984 71.3452 21.1328L70.607 20.125ZM85.0566 12.918V14.2656H87.5293V12.918H88.8184V17.5352H83.7676V12.918H85.0566ZM84.834 19.3164V18.2969H91.7598V21.0742H86.1348V21.918H92.0879V22.9492H84.8457V20.125H90.459V19.3164H84.834ZM85.0566 16.5039H87.5293V15.25H85.0566V16.5039ZM90.459 17.875V12.4492H91.7598V14.5938H93.2363V15.6484H91.7598V17.875H90.459ZM96.8401 14.418C96.8459 15.5605 97.5139 16.7148 98.9026 17.2422L98.2112 18.2383C97.2678 17.8809 96.6116 17.2012 96.2307 16.3809C95.844 17.3242 95.1526 18.1328 94.1448 18.5547L93.4416 17.5586C94.9006 16.9141 95.5803 15.5898 95.5862 14.418V13.1055H96.8401V14.418ZM95.387 21.0742C95.3811 19.8555 96.7873 19.1289 99.0198 19.1289C101.235 19.1289 102.647 19.8555 102.653 21.0742C102.647 22.2988 101.235 23.0312 99.0198 23.0312C96.7873 23.0312 95.3811 22.2988 95.387 21.0742ZM96.6877 21.0742C96.6819 21.7012 97.5491 22.041 99.0198 22.0352C100.467 22.041 101.334 21.7012 101.34 21.0742C101.334 20.4531 100.467 20.1133 99.0198 20.1133C97.5491 20.1133 96.6819 20.4531 96.6877 21.0742ZM99.0784 18.625V12.6602H100.297V15.1328H101.352V12.4609H102.594V18.9531H101.352V16.1992H100.297V18.625H99.0784ZM112.725 12.4609V18.9883H111.483V16.3047H110.475V18.8594H109.256V12.6133H110.475V15.2383H111.483V12.4609H112.725ZM103.608 14.5703V13.5391H105.612V12.5078H106.901V13.5391H108.881V14.5703H103.608ZM103.983 16.8086C103.971 15.7012 104.932 14.9746 106.256 14.9688C107.604 14.9746 108.553 15.7012 108.565 16.8086C108.553 17.8984 107.604 18.6426 106.256 18.6484C104.932 18.6426 103.971 17.8984 103.983 16.8086ZM104.288 21.9297C105.641 21.5195 106.333 20.5234 106.327 19.5742V19.3164H107.616V19.5742C107.61 20.4004 108.002 21.2441 108.893 21.7715C109.795 21.209 110.211 20.3125 110.217 19.5742V19.3164H111.506V19.5742C111.506 20.582 112.168 21.5547 113.557 21.9297L112.948 22.9141C111.911 22.5859 111.213 21.9297 110.85 21.1211C110.51 21.9238 109.889 22.6445 108.916 23.0078C107.92 22.6562 107.293 21.9766 106.959 21.1738C106.573 21.9473 105.881 22.5801 104.897 22.9141L104.288 21.9297ZM105.143 16.8086C105.143 17.3652 105.594 17.6992 106.256 17.6992C106.924 17.6992 107.381 17.3652 107.381 16.8086C107.381 16.2402 106.924 15.918 106.256 15.918C105.594 15.918 105.143 16.2402 105.143 16.8086ZM116.692 13.2227C118.122 13.2227 119.182 14.418 119.37 16.3516H121.391V12.4492H122.68V23.0547H121.391V17.4062H119.382C119.241 19.4512 118.163 20.7109 116.692 20.7109C115.098 20.7109 113.967 19.2637 113.973 16.9609C113.967 14.6758 115.098 13.2227 116.692 13.2227ZM115.227 16.9609C115.221 18.5898 115.819 19.5332 116.692 19.5391C117.571 19.5332 118.163 18.5898 118.169 16.9609C118.163 15.3438 117.571 14.3945 116.692 14.3945C115.819 14.3945 115.221 15.3438 115.227 16.9609ZM133.608 20.6875V21.7539H123.929V20.6875H126.167V18.0098C125.323 17.5234 124.813 16.7617 124.819 15.8242C124.813 14.1367 126.466 13.0234 128.745 13.0234C131.036 13.0234 132.7 14.1367 132.694 15.8242C132.7 16.75 132.202 17.4941 131.382 17.9805V20.6875H133.608ZM126.097 15.8242C126.091 16.9082 127.163 17.5996 128.745 17.5938C130.321 17.5996 131.417 16.9082 131.417 15.8242C131.417 14.7227 130.321 14.0488 128.745 14.0547C127.163 14.0488 126.091 14.7227 126.097 15.8242ZM127.456 20.6875H130.058V18.4785C129.653 18.5664 129.214 18.6133 128.745 18.6133C128.288 18.6133 127.854 18.5664 127.456 18.4844V20.6875Z" fill="#3446EA"/>
<path d="M40 46C62.0765 46 80 63.9234 80 86V121.126C80 123.816 77.8159 126 75.1257 126H40C17.9234 126 0 108.077 0 86C0 63.9235 17.9234 46 40 46Z" fill="#3446EA"/>
<path d="M37.235 66.144C34.9905 65.49 32.3593 67.1467 32.0339 69.4259C31.7092 71.705 33.7681 74.0149 36.1051 73.9999C37.0341 73.9999 38.0097 73.6354 38.5666 72.8907C39.1236 72.146 39.1702 71.0218 38.5514 70.3528C37.9318 69.6846 36.6315 69.6846 36.1212 70.4593" stroke="white" stroke-width="1.7" stroke-linecap="round" stroke-linejoin="round"/>
<path d="M22.4872 66.1258C20.5633 65.5542 18.308 67.0032 18.029 68.9982C17.7507 70.9925 19.5149 73.0137 21.5187 72.9999C22.315 72.9999 23.1506 72.681 23.6286 72.0293C24.106 71.3777 24.146 70.394 23.6149 69.8093C23.0845 69.2239 21.9699 69.2239 21.5318 69.9018" stroke="white" stroke-width="1.7" stroke-linecap="round" stroke-linejoin="round"/>
</svg>
