<svg width="16" height="16" viewBox="0 0 16 16" fill="none" xmlns="http://www.w3.org/2000/svg">
<path d="M10.9757 2.63646C11.1411 2.24027 11.7024 2.24027 11.8678 2.63646L12.412 3.94005C12.4516 4.03513 12.5207 4.11503 12.609 4.16811L13.8826 4.93374C14.195 5.12155 14.195 5.57444 13.8826 5.76225L12.609 6.52788C12.5207 6.58096 12.4516 6.66086 12.412 6.75593L11.8678 8.05953C11.7024 8.45572 11.1411 8.45572 10.9757 8.05953L10.4315 6.75593C10.3918 6.66086 10.3228 6.58096 10.2345 6.52788L8.96085 5.76225C8.64842 5.57444 8.64842 5.12155 8.96085 4.93374L10.2345 4.16811C10.3228 4.11503 10.3918 4.03513 10.4315 3.94005L10.9757 2.63646Z" fill="#8D3EFF"/>
<path d="M5.03461 6.35709C5.21951 5.94184 5.8089 5.94184 5.99381 6.35709L6.84536 8.26946C6.89122 8.37244 6.969 8.45792 7.06721 8.51327L8.90265 9.54766C9.25897 9.74847 9.25897 10.2616 8.90265 10.4624L7.06721 11.4968C6.969 11.5521 6.89122 11.6376 6.84536 11.7406L5.99381 13.653C5.8089 14.0682 5.21951 14.0682 5.03461 13.653L4.18305 11.7406C4.1372 11.6376 4.05942 11.5521 3.96121 11.4968L2.12577 10.4624C1.76945 10.2616 1.76945 9.74847 2.12577 9.54766L3.96121 8.51327C4.05942 8.45792 4.1372 8.37244 4.18305 8.26946L5.03461 6.35709Z" fill="#8D3EFF"/>
</svg>
