<svg width="26" height="26" viewBox="0 0 26 26" fill="none" xmlns="http://www.w3.org/2000/svg">
<mask id="mask0_695_5981" style="mask-type:luminance" maskUnits="userSpaceOnUse" x="1" y="1" width="24" height="24">
<path d="M23.7597 10.9173H13.0861V15.3429H19.2299C18.6572 18.1545 16.2621 19.7686 13.0861 19.7686C9.33732 19.7686 6.31749 16.7487 6.31749 13C6.31749 9.2512 9.33732 6.23137 13.0861 6.23137C14.7001 6.23137 16.158 6.80409 17.3034 7.74128L20.6357 4.40905C18.6051 2.6388 16.0018 1.54541 13.0861 1.54541C6.73402 1.54541 1.63153 6.6479 1.63153 13C1.63153 19.352 6.73402 24.4545 13.0861 24.4545C18.8134 24.4545 24.02 20.2892 24.02 13C24.02 12.3231 23.9159 11.5942 23.7597 10.9173Z" fill="white"/>
</mask>
<g mask="url(#mask0_695_5981)">
<path d="M0.59021 19.7687V6.23145L9.44146 13L0.59021 19.7687Z" fill="#FBBC05"/>
</g>
<mask id="mask1_695_5981" style="mask-type:luminance" maskUnits="userSpaceOnUse" x="1" y="1" width="24" height="24">
<path d="M23.7597 10.9173H13.0861V15.3429H19.2299C18.6572 18.1545 16.2621 19.7686 13.0861 19.7686C9.33732 19.7686 6.31749 16.7487 6.31749 13C6.31749 9.2512 9.33732 6.23137 13.0861 6.23137C14.7001 6.23137 16.158 6.80409 17.3034 7.74128L20.6357 4.40905C18.6051 2.6388 16.0018 1.54541 13.0861 1.54541C6.73402 1.54541 1.63153 6.6479 1.63153 13C1.63153 19.352 6.73402 24.4545 13.0861 24.4545C18.8134 24.4545 24.02 20.2892 24.02 13C24.02 12.3231 23.9159 11.5942 23.7597 10.9173Z" fill="white"/>
</mask>
<g mask="url(#mask1_695_5981)">
<path d="M0.59021 6.23119L9.44146 12.9998L13.0861 9.82375L25.582 7.79317V0.503906H0.59021V6.23119Z" fill="#EA4335"/>
</g>
<mask id="mask2_695_5981" style="mask-type:luminance" maskUnits="userSpaceOnUse" x="1" y="1" width="24" height="24">
<path d="M23.7597 10.9173H13.0861V15.3429H19.2299C18.6572 18.1545 16.2621 19.7686 13.0861 19.7686C9.33732 19.7686 6.31749 16.7487 6.31749 13C6.31749 9.2512 9.33732 6.23137 13.0861 6.23137C14.7001 6.23137 16.158 6.80409 17.3034 7.74128L20.6357 4.40905C18.6051 2.6388 16.0018 1.54541 13.0861 1.54541C6.73402 1.54541 1.63153 6.6479 1.63153 13C1.63153 19.352 6.73402 24.4545 13.0861 24.4545C18.8134 24.4545 24.02 20.2892 24.02 13C24.02 12.3231 23.9159 11.5942 23.7597 10.9173Z" fill="white"/>
</mask>
<g mask="url(#mask2_695_5981)">
<path d="M0.59021 19.7684L16.2101 7.79317L20.3233 8.31383L25.582 0.503906V25.4957H0.59021V19.7684Z" fill="#34A853"/>
</g>
<mask id="mask3_695_5981" style="mask-type:luminance" maskUnits="userSpaceOnUse" x="1" y="1" width="24" height="24">
<path d="M23.7597 10.9173H13.0861V15.3429H19.2299C18.6572 18.1545 16.2621 19.7686 13.0861 19.7686C9.33732 19.7686 6.31749 16.7487 6.31749 13C6.31749 9.2512 9.33732 6.23137 13.0861 6.23137C14.7001 6.23137 16.158 6.80409 17.3034 7.74128L20.6357 4.40905C18.6051 2.6388 16.0018 1.54541 13.0861 1.54541C6.73402 1.54541 1.63153 6.6479 1.63153 13C1.63153 19.352 6.73402 24.4545 13.0861 24.4545C18.8134 24.4545 24.02 20.2892 24.02 13C24.02 12.3231 23.9159 11.5942 23.7597 10.9173Z" fill="white"/>
</mask>
<g mask="url(#mask3_695_5981)">
<path d="M25.5819 25.4959L9.44141 13L7.35876 11.4381L25.5819 6.23145V25.4959Z" fill="#4285F4"/>
</g>
</svg>
