<svg width="24" height="24" viewBox="0 0 24 24" fill="none" xmlns="http://www.w3.org/2000/svg">
<path d="M8.8 21.2H4.2C3.53726 21.2 3 20.6628 3 20V10.9225C3 10.0923 3.34406 9.29915 3.95031 8.7319L9.95031 3.11786C11.1037 2.03867 12.8963 2.03867 14.0497 3.11786L20.0497 8.7319C20.6559 9.29915 21 10.0923 21 10.9225V20C21 20.6628 20.4627 21.2 19.8 21.2H15.2C14.5373 21.2 14 20.6628 14 20V16.9369C14 16.3846 13.5523 15.9369 13 15.9369H11C10.4477 15.9369 10 16.3846 10 16.9369V20C10 20.6628 9.46274 21.2 8.8 21.2Z" fill="#42424A"/>
</svg>
