<svg width="22" height="22" viewBox="0 0 22 22" fill="none" xmlns="http://www.w3.org/2000/svg">
<path fill-rule="evenodd" clip-rule="evenodd" d="M11.0003 0.991882C8.79128 0.991882 7.00049 2.78268 7.00049 4.99173V9.99154C7.00049 12.2006 8.79128 13.9914 11.0003 13.9914C13.2094 13.9914 15.0002 12.2006 15.0002 9.99154V4.99173C15.0002 2.78268 13.2094 0.991882 11.0003 0.991882ZM18.4998 10.4921C18.4998 14.1039 15.6131 16.9764 12.0003 17.4296V18.9923H13C13.5523 18.9923 14 19.44 14 19.9923C14 20.5445 13.5523 20.9923 13 20.9923H9.00015C8.44787 20.9923 8.00015 20.5445 8.00015 19.9923C8.00015 19.44 8.44787 18.9923 9.00015 18.9923H10.0003V17.4297C6.38728 16.9768 3.50024 14.1042 3.50024 10.4921C3.50024 9.93985 3.94796 9.49214 4.50024 9.49214C5.05253 9.49214 5.50024 9.93985 5.50024 10.4921C5.50024 13.1796 7.8857 15.4919 11 15.4919C14.1143 15.4919 16.4998 13.1796 16.4998 10.4921C16.4998 9.93985 16.9475 9.49214 17.4998 9.49214C18.052 9.49214 18.4998 9.93985 18.4998 10.4921Z" fill="white"/>
</svg>
