<svg width="24" height="24" viewBox="0 0 24 24" fill="none" xmlns="http://www.w3.org/2000/svg">
<circle cx="12" cy="12" r="11" fill="white"/>
<path fill-rule="evenodd" clip-rule="evenodd" d="M11.5865 6.19995C11.2128 6.19995 10.8562 6.35681 10.6037 6.63232L9.47246 7.86636H6.86842C6.11266 7.86636 5.5 8.46331 5.5 9.19969V16.1997C5.5 16.9361 6.11266 17.533 6.86842 17.533H17.1316C17.8873 17.533 18.5 16.9361 18.5 16.1997V9.19969C18.5 8.46331 17.8873 7.86636 17.1316 7.86636H16.1942L15.063 6.63232C14.8105 6.35681 14.4539 6.19995 14.0801 6.19995H11.5865ZM12.8333 10.7666C11.8576 10.7666 11.0666 11.5576 11.0666 12.5333C11.0666 13.509 11.8576 14.3 12.8333 14.3C13.809 14.3 14.5999 13.509 14.5999 12.5333C14.5999 11.5576 13.809 10.7666 12.8333 10.7666ZM9.93327 12.5333C9.93327 10.9317 11.2316 9.6333 12.8333 9.6333C14.4349 9.6333 15.7333 10.9317 15.7333 12.5333C15.7333 14.1349 14.4349 15.4333 12.8333 15.4333C11.2316 15.4333 9.93327 14.1349 9.93327 12.5333ZM8.16667 10.8666C8.53486 10.8666 8.83333 10.5681 8.83333 10.2C8.83333 9.83176 8.53486 9.53328 8.16667 9.53328C7.79848 9.53328 7.5 9.83176 7.5 10.2C7.5 10.5681 7.79848 10.8666 8.16667 10.8666Z" fill="#42424A"/>
</svg>
