<svg width="24" height="24" viewBox="0 0 24 24" fill="none" xmlns="http://www.w3.org/2000/svg">
<path d="M15.9447 3.84852C16.4133 3.37989 17.1731 3.37989 17.6418 3.84852L20.1514 6.35815C20.6201 6.82677 20.6201 7.58656 20.1514 8.05518L18.4831 9.72348C18.0145 10.1921 17.2547 10.1921 16.786 9.72348L14.2763 7.21385C13.8077 6.74523 13.8077 5.98544 14.2763 5.51681L15.9447 3.84852Z" fill="#42424A"/>
<path d="M11.3875 8.40626C11.8562 7.93763 12.616 7.93763 13.0846 8.40626L15.5944 10.916C16.063 11.3846 16.063 12.1444 15.5944 12.613L7.99029 20.2169C7.7111 20.4961 7.35551 20.6864 6.96834 20.7638L4.06842 21.3439C3.22871 21.5118 2.48836 20.7715 2.65635 19.9318L3.23649 17.032C3.31395 16.6449 3.50425 16.2894 3.78343 16.0102L11.3875 8.40626Z" fill="#42424A"/>
</svg>
