<svg width="24" height="24" viewBox="0 0 24 24" fill="none" xmlns="http://www.w3.org/2000/svg">
<circle cx="12" cy="12" r="11" fill="#ECECF2"/>
<path fill-rule="evenodd" clip-rule="evenodd" d="M12.7271 10.4403C12.7383 9.07875 13.9535 8.24058 15.4191 8.25008C16.9031 8.24052 18.0272 9.09384 18.0722 10.3759C18.0745 10.4437 18.0493 10.5095 18.0021 10.5583C17.955 10.6071 17.8901 10.6347 17.8223 10.6347H16.8145C16.6882 10.6347 16.5817 10.5404 16.5663 10.415C16.5363 10.1694 16.418 9.98268 16.2298 9.85208C16.0364 9.7178 15.7558 9.63469 15.3997 9.63469C15.0175 9.63469 14.73 9.7308 14.5449 9.86878C14.3646 10.0032 14.2737 10.1812 14.2737 10.3847C14.2737 10.5957 14.3822 10.7508 14.5819 10.8829C14.7888 11.0197 15.064 11.1099 15.3276 11.1813L16.0015 11.3533C16.4518 11.4578 16.9832 11.6389 17.4057 11.9689C17.8385 12.307 18.1548 12.8014 18.1498 13.5C18.1547 14.1492 17.8929 14.7212 17.3994 15.126C16.9099 15.5276 16.2116 15.75 15.3609 15.75C14.5564 15.75 13.8742 15.5505 13.3788 15.1618C12.8783 14.7692 12.5906 14.2003 12.553 13.5137C12.5493 13.4451 12.5739 13.378 12.6211 13.3281C12.6683 13.2783 12.734 13.25 12.8027 13.25H13.8492C13.9797 13.25 14.0882 13.3504 14.0985 13.4805C14.1213 13.7707 14.2571 13.9769 14.4679 14.1179C14.6866 14.2642 14.9972 14.3462 15.3609 14.3462C15.7629 14.3462 16.0862 14.245 16.3016 14.0902C16.512 13.9391 16.6226 13.737 16.6226 13.5C16.6226 13.2944 16.5359 13.1541 16.358 13.0318C16.1644 12.8988 15.8775 12.7992 15.511 12.7035L15.5098 12.7032L14.7149 12.4915C14.1363 12.3368 13.6436 12.108 13.2915 11.7723C12.932 11.4295 12.7326 10.9876 12.7271 10.4449L12.7271 10.4403ZM9.00083 8.25008C8.0451 8.24526 7.20351 8.59745 6.60128 9.25279C6.00025 9.90683 5.65497 10.8434 5.6499 11.9797V11.9819C5.65497 13.1182 6.00024 14.0569 6.60078 14.7143C7.20275 15.3733 8.0444 15.7308 9.00084 15.7308C9.95221 15.7308 10.7916 15.3758 11.3914 14.7177C11.9898 14.061 12.3324 13.122 12.3324 11.9808C12.3324 10.8443 11.9897 9.90745 11.3911 9.25319C10.7913 8.5977 9.95205 8.24526 9.00083 8.25008ZM9.00289 9.69237C9.52017 9.68813 9.96156 9.88324 10.2775 10.2537C10.5965 10.6276 10.8052 11.2018 10.8052 11.9808C10.8052 12.7648 10.5964 13.3391 10.2773 13.7142C9.96134 14.0857 9.51941 14.2837 9.00085 14.2885C8.47703 14.2837 8.03543 14.0854 7.72101 13.7146C7.40317 13.3397 7.19647 12.7654 7.19647 11.9808C7.19647 11.2011 7.4031 10.627 7.72078 10.2533C8.03519 9.88353 8.47623 9.68816 8.9988 9.69241L9.00289 9.69237Z" fill="#A2A2B2"/>
</svg>
