<svg width="32" height="32" viewBox="0 0 32 32" fill="none" xmlns="http://www.w3.org/2000/svg">
<circle cx="15.9999" cy="16" r="14.6667" fill="#F6F6F9"/>
<circle cx="16" cy="17" r="2.4" stroke="#A2A2B2" stroke-width="1.2"/>
<mask id="path-3-inside-1_2090_5137" fill="white">
<path fill-rule="evenodd" clip-rule="evenodd" d="M18.5 10H13.5L12.5 12H9V22H23V12H19.5L18.5 10Z"/>
</mask>
<path d="M13.5 10V8.8H12.7584L12.4267 9.46334L13.5 10ZM18.5 10L19.5733 9.46334L19.2416 8.8H18.5V10ZM12.5 12V13.2H13.2416L13.5733 12.5367L12.5 12ZM9 12V10.8H7.8V12H9ZM9 22H7.8V23.2H9V22ZM23 22V23.2H24.2V22H23ZM23 12H24.2V10.8H23V12ZM19.5 12L18.4267 12.5367L18.7584 13.2H19.5V12ZM13.5 11.2H18.5V8.8H13.5V11.2ZM13.5733 12.5367L14.5733 10.5367L12.4267 9.46334L11.4267 11.4633L13.5733 12.5367ZM9 13.2H12.5V10.8H9V13.2ZM10.2 22V12H7.8V22H10.2ZM23 20.8H9V23.2H23V20.8ZM21.8 12V22H24.2V12H21.8ZM19.5 13.2H23V10.8H19.5V13.2ZM17.4267 10.5367L18.4267 12.5367L20.5733 11.4633L19.5733 9.46334L17.4267 10.5367Z" fill="#A2A2B2" mask="url(#path-3-inside-1_2090_5137)"/>
</svg>
