<svg width="38" height="33" viewBox="0 0 38 33" fill="none" xmlns="http://www.w3.org/2000/svg">
<path d="M34.6349 16.3958C31.4916 16.5088 30.8987 17.0626 29.3176 21.3343C29.8091 16.8059 29.5256 16.0458 26.7631 14.5419C29.9064 14.4288 30.4993 13.8751 32.0804 9.60335C31.5889 14.1317 31.8724 14.8919 34.6349 16.3958Z" fill="#9CA6FF"/>
<path d="M29.089 22.3061C28.5916 22.1889 28.2552 21.724 28.3113 21.2203C28.7936 16.7841 28.4573 16.6023 26.2783 15.4163C25.8794 15.1993 25.6739 14.7448 25.7764 14.3094C25.879 13.8741 26.2657 13.559 26.7195 13.5428C29.1997 13.45 29.5818 13.4374 31.1291 9.25613C31.3027 8.7842 31.8121 8.51442 32.3095 8.63156C32.8069 8.74871 33.1433 9.21357 33.0872 9.71728C32.6049 14.1535 32.9412 14.3353 35.1203 15.5213C35.5192 15.7383 35.7246 16.1929 35.6221 16.6282C35.5195 17.0636 35.1328 17.3786 34.679 17.3948C32.1997 17.4837 31.8167 17.5002 30.2694 21.6815C30.0958 22.1534 29.5864 22.4232 29.089 22.3061ZM29.357 15.1527C29.8674 15.6749 30.1799 16.2409 30.3532 16.9381C30.8185 16.3954 31.3517 16.0245 32.0415 15.7849C31.5311 15.2627 31.2186 14.6968 31.0453 13.9995C30.58 14.5422 30.0468 14.9131 29.357 15.1527Z" fill="#9CA6FF"/>
<path d="M21.5779 17.6835C16.419 17.9734 15.4635 18.9025 13.0083 25.971C13.6655 18.5171 13.1747 17.2781 8.58765 14.8995C13.7466 14.6097 14.702 13.6806 17.1572 6.6121C16.5001 14.066 16.9909 15.305 21.5779 17.6835Z" fill="#3446EA"/>
<path d="M12.6625 27.5747C11.8417 27.3988 11.2738 26.6465 11.3493 25.8173C11.9944 18.5152 11.4359 18.2277 7.81774 16.352C7.15539 16.0088 6.80289 15.269 6.95686 14.5506C7.11083 13.8322 7.73553 13.3019 8.48035 13.2602C12.5508 13.0256 13.178 12.9923 15.5807 6.07356C15.8503 5.2927 16.6779 4.83272 17.4988 5.00864C18.3196 5.18456 18.8875 5.93691 18.812 6.76608C18.1669 14.0682 18.7254 14.3556 22.3436 16.2314C23.0059 16.5746 23.3584 17.3143 23.2044 18.0327C23.0505 18.7512 22.4258 19.2815 21.681 19.3231C17.6118 19.5513 16.9833 19.5911 14.5806 26.5098C14.311 27.2907 13.4834 27.7506 12.6625 27.5747ZM12.8657 15.817C13.7212 16.6578 14.2533 17.5769 14.561 18.7164C15.3073 17.8095 16.1707 17.1828 17.2956 16.7664C16.4401 15.9255 15.908 15.0064 15.6003 13.867C14.854 14.7738 13.9906 15.4006 12.8657 15.817Z" fill="#3446EA"/>
</svg>
