<svg width="16" height="17" viewBox="0 0 16 17" fill="none" xmlns="http://www.w3.org/2000/svg">
<path d="M10.9757 2.83647C11.1411 2.44028 11.7024 2.44028 11.8678 2.83647L12.412 4.14007C12.4516 4.23514 12.5207 4.31504 12.609 4.36812L13.8826 5.13375C14.195 5.32156 14.195 5.77445 13.8826 5.96226L12.609 6.72789C12.5207 6.78097 12.4516 6.86087 12.412 6.95595L11.8678 8.25954C11.7024 8.65573 11.1411 8.65573 10.9757 8.25954L10.4315 6.95595C10.3918 6.86087 10.3228 6.78097 10.2345 6.72789L8.96085 5.96226C8.64842 5.77445 8.64842 5.32156 8.96085 5.13375L10.2345 4.36812C10.3228 4.31504 10.3918 4.23514 10.4315 4.14007L10.9757 2.83647Z" fill="#8D3EFF"/>
<path d="M5.03461 6.5571C5.21951 6.14185 5.8089 6.14185 5.99381 6.5571L6.84536 8.46947C6.89122 8.57245 6.969 8.65793 7.06721 8.71328L8.90265 9.74767C9.25897 9.94848 9.25897 10.4616 8.90265 10.6624L7.06721 11.6968C6.969 11.7521 6.89122 11.8376 6.84536 11.9406L5.99381 13.853C5.8089 14.2682 5.21951 14.2682 5.03461 13.853L4.18305 11.9406C4.1372 11.8376 4.05942 11.7521 3.96121 11.6968L2.12577 10.6624C1.76945 10.4616 1.76945 9.94848 2.12577 9.74767L3.96121 8.71328C4.05942 8.65793 4.1372 8.57245 4.18305 8.46947L5.03461 6.5571Z" fill="#8D3EFF"/>
</svg>
