<svg width="24" height="24" viewBox="0 0 24 24" fill="none" xmlns="http://www.w3.org/2000/svg">
<path fill-rule="evenodd" clip-rule="evenodd" d="M5.5 3C4.39543 3 3.5 3.89543 3.5 5V15.1667C3.5 15.204 3.50102 15.241 3.50304 15.2778H3.5V18.1111V18.1112C3.50006 19.7066 4.79344 20.9999 6.38889 20.9999H19.5C20.0523 20.9999 20.5 20.5522 20.5 19.9999C20.5 19.4477 20.0523 18.9999 19.5 18.9999H6.38889C5.89801 18.9999 5.50006 18.602 5.5 18.1112V18.1111C5.5 17.6201 5.89797 17.2222 6.38889 17.2222H19.5C20.0523 17.2222 20.5 16.7745 20.5 16.2222V16.2222V15.1667V13.3889V5C20.5 3.89543 19.6046 3 18.5 3H5.5ZM9.1499 8.66665C9.1499 8.19721 9.53046 7.81665 9.9999 7.81665H14.9999C15.4693 7.81665 15.8499 8.19721 15.8499 8.66665C15.8499 9.13609 15.4693 9.51665 14.9999 9.51665H9.9999C9.53046 9.51665 9.1499 9.13609 9.1499 8.66665Z" fill="#42424A"/>
</svg>
