<svg width="24" height="24" viewBox="0 0 24 24" fill="none" xmlns="http://www.w3.org/2000/svg">
<path d="M11.4995 3C16.1915 3 20 6.80874 20 11.5V18.9642C20 19.5359 19.536 20 18.9642 20H11.5005C6.80851 20.001 3 16.1923 3 11.5C3 6.80874 6.80851 3 11.4995 3Z" fill="#42424A"/>
<path d="M7.45906 10.4373H6.90078C6.7506 10.4373 6.63977 10.2985 6.67395 10.1524L7.42488 6.87194C7.4487 6.76629 7.54296 6.69067 7.65171 6.69067H8.20999C8.36018 6.69067 8.471 6.82947 8.43682 6.97553L7.68589 10.256C7.66207 10.3616 7.56782 10.4373 7.45906 10.4373Z" fill="white"/>
<path d="M9.76888 10.4373H9.2106C9.06041 10.4373 8.94959 10.2985 8.98377 10.1524L9.7347 6.87194C9.75852 6.76629 9.85277 6.69067 9.96153 6.69067H10.5198C10.67 6.69067 10.7808 6.82947 10.7466 6.97553L9.99571 10.256C9.97189 10.3616 9.87763 10.4373 9.76888 10.4373Z" fill="white"/>
</svg>
