<svg width="16" height="16" viewBox="0 0 16 16" fill="none" xmlns="http://www.w3.org/2000/svg">
<g clip-path="url(#clip0_3493_3973)">
<path fill-rule="evenodd" clip-rule="evenodd" d="M4.7918 3.47479C4.7918 1.70299 6.22812 0.266663 7.99992 0.266663C9.77172 0.266663 11.208 1.70299 11.208 3.47478V7.48494C11.208 9.25673 9.77172 10.6931 7.99992 10.6931C6.22812 10.6931 4.7918 9.25673 4.7918 7.48494V3.47479ZM7.1 13.5361V15.1042C7.1 15.6013 7.50294 16.0042 8 16.0042C8.49706 16.0042 8.9 15.6013 8.9 15.1042V13.536C11.8005 13.1327 14.1131 10.8102 14.1131 7.886C14.1131 7.38894 13.7102 6.986 13.2131 6.986C12.7161 6.986 12.3131 7.38894 12.3131 7.886C12.3131 9.97711 10.4567 11.7929 8.01066 11.7982C8.00711 11.7981 8.00356 11.7981 8 11.7981C7.99643 11.7981 7.99287 11.7981 7.98932 11.7982C5.54325 11.7929 3.68672 9.97715 3.68672 7.886C3.68672 7.38894 3.28377 6.986 2.78672 6.986C2.28966 6.986 1.88672 7.38894 1.88672 7.886C1.88672 10.8103 4.1994 13.1328 7.1 13.5361Z" fill="#5C6DFF"/>
</g>
<defs>
<clipPath id="clip0_3493_3973">
<rect width="16" height="16" fill="white"/>
</clipPath>
</defs>
</svg>
