<svg width="27" height="16" viewBox="0 0 27 16" fill="none" xmlns="http://www.w3.org/2000/svg">
<path d="M24.9999 4.07313C25.7876 4.07313 26.5077 4.74824 26.5077 5.53586V14.5148C26.5077 15.3249 25.7876 15.9776 24.9999 15.9776C24.1898 15.9776 23.5147 15.3249 23.5147 14.5148V14.0872C23.3347 14.7849 22.142 16.0001 20.1842 16.0001C17.7088 16.0001 14.7383 14.0872 14.7383 9.99158C14.7383 5.98594 17.7313 4.00562 20.1842 4.00562C21.7819 4.00562 23.0646 4.86075 23.5147 5.91843V5.53586C23.5147 4.74824 24.1898 4.07313 24.9999 4.07313ZM20.7243 13.4571C21.9845 13.4571 23.6497 12.5345 23.6497 9.99158C23.6497 7.44867 21.9845 6.52602 20.7243 6.52602C19.239 6.52602 17.6863 7.69621 17.6863 9.99158C17.6863 12.3095 19.239 13.4571 20.7243 13.4571Z" fill="#3446EA"/>
<path d="M14.3123 13.7047C14.4248 13.9523 14.4923 14.2448 14.4923 14.5599C14.4923 15.3025 13.8622 15.9326 13.0296 15.9326C12.3545 15.9326 11.8144 15.55 11.5669 14.9649L10.4417 12.3095H4.05066L2.92547 14.9649C2.67793 15.55 2.13785 15.9326 1.48524 15.9326C0.652606 15.9326 0 15.3025 0 14.5599C0 14.2448 0.0900146 13.9523 0.202533 13.7047L5.78344 1.12518C6.09849 0.360059 6.57106 0 7.24617 0C7.92128 0 8.39386 0.360059 8.73141 1.12518L14.3123 13.7047ZM5.08582 9.9016H9.40652L7.24617 4.81578L5.08582 9.9016Z" fill="#3446EA"/>
</svg>
