<svg width="78" height="36" viewBox="0 0 78 36" fill="none" xmlns="http://www.w3.org/2000/svg">
<rect width="78" height="29" rx="14.5" fill="#282831"/>
<path d="M18.0266 10.36V11.416H14.3546V13.312H17.8346V14.344H14.3546V16.528C15.9866 16.516 17.2586 16.456 18.7226 16.216L18.8426 17.272C17.2226 17.524 15.8066 17.584 13.8986 17.584H13.0346V10.36H18.0266ZM19.5866 20.032V9.448H20.8826V13.552H22.5146V14.632H20.8826V20.032H19.5866ZM31.5417 9.448V20.056H30.2217V9.448H31.5417ZM23.0697 13.96C23.0577 11.68 24.2217 10.228 25.8297 10.216C27.4257 10.228 28.5897 11.68 28.5897 13.96C28.5897 16.264 27.4257 17.716 25.8297 17.704C24.2217 17.716 23.0577 16.264 23.0697 13.96ZM24.3177 13.96C24.3177 15.592 24.9297 16.54 25.8297 16.528C26.7177 16.54 27.3297 15.592 27.3417 13.96C27.3297 12.352 26.7177 11.392 25.8297 11.392C24.9297 11.392 24.3177 12.352 24.3177 13.96ZM39.0568 10.288V11.344H38.1208V14.08C38.6008 14.044 39.0688 13.996 39.5128 13.936L39.6088 14.896C37.4368 15.28 34.9528 15.316 33.1768 15.328L33.0328 14.248H34.2328V11.344H33.3208V10.288H39.0568ZM34.4968 18.04C34.4968 16.792 35.8648 16.084 38.1208 16.096C40.3648 16.084 41.7448 16.792 41.7448 18.04C41.7448 19.312 40.3648 20.032 38.1208 20.032C35.8648 20.032 34.4968 19.312 34.4968 18.04ZM35.5048 14.224C35.9488 14.212 36.4168 14.188 36.8728 14.164V11.344H35.5048V14.224ZM35.7928 18.04C35.7928 18.688 36.6208 19.024 38.1208 19.024C39.6088 19.024 40.4368 18.688 40.4488 18.04C40.4368 17.428 39.6088 17.092 38.1208 17.104C36.6208 17.092 35.7928 17.428 35.7928 18.04ZM40.3768 15.88V9.472H41.6728V15.88H40.3768ZM55.2872 17.68V18.76H45.6152V17.68H49.7912V15.376H46.6712V10.264H54.1832V15.376H51.0632V17.68H55.2872ZM47.9432 14.344H52.8872V11.32H47.9432V14.344ZM64.3383 14.416V15.472H56.9223V10.36H64.2423V11.44H58.1943V14.416H64.3383ZM55.7463 18.688V17.608H65.4183V18.688H55.7463Z" fill="white"/>
<path d="M38.1316 34.4805L35 29H43L39.8681 34.4805C39.4842 35.1523 38.5155 35.1524 38.1316 34.4805Z" fill="#282831"/>
</svg>
