<svg width="135" height="36" viewBox="0 0 135 36" fill="none" xmlns="http://www.w3.org/2000/svg">
<rect width="135" height="29" rx="14.5" fill="#282831"/>
<path d="M17.6689 9.664C19.9969 9.664 21.4609 10.432 21.4609 11.728C21.4609 12.988 19.9969 13.744 17.6689 13.744C15.3289 13.744 13.8409 12.988 13.8289 11.728C13.8409 10.432 15.3289 9.664 17.6689 9.664ZM12.8449 15.496V14.464H22.4929V15.496H12.8449ZM13.9729 19.912V16.336H21.3169V19.912H13.9729ZM15.1969 11.728C15.1849 12.364 16.1089 12.724 17.6689 12.736C19.1929 12.724 20.1289 12.364 20.1169 11.728C20.1289 11.044 19.1929 10.684 17.6689 10.672C16.1089 10.684 15.1849 11.044 15.1969 11.728ZM15.2689 18.856H20.0449V17.392H15.2689V18.856ZM26.84 10.96C26.84 12.412 27.68 13.732 29.336 14.248L28.64 15.28C27.488 14.86 26.672 14.092 26.228 13.084C25.76 14.236 24.884 15.148 23.6 15.592L22.904 14.56C24.656 13.972 25.532 12.556 25.544 11.032V10.024H26.84V10.96ZM24.656 17.992C24.644 16.708 26.024 15.964 28.256 15.952C30.5 15.964 31.868 16.708 31.88 17.992C31.868 19.3 30.5 20.032 28.256 20.032C26.024 20.032 24.644 19.3 24.656 17.992ZM25.952 17.992C25.94 18.652 26.78 19.012 28.256 19C29.732 19.012 30.572 18.652 30.584 17.992C30.572 17.332 29.732 16.984 28.256 16.984C26.78 16.984 25.94 17.332 25.952 17.992ZM28.424 12.568V11.488H30.536V9.448H31.832V15.688H30.536V12.568H28.424ZM37.9311 10.048C40.1511 10.048 41.8671 11.236 41.8671 13.048C41.8671 14.86 40.1511 16.048 37.9311 16.048C35.6991 16.048 33.9831 14.86 33.9951 13.048C33.9831 11.236 35.6991 10.048 37.9311 10.048ZM33.1071 18.712V17.632H42.7791V18.712H33.1071ZM35.2431 13.048C35.2431 14.236 36.3711 14.98 37.9311 14.968C39.4551 14.98 40.5831 14.236 40.5951 13.048C40.5831 11.86 39.4551 11.092 37.9311 11.104C36.3711 11.092 35.2431 11.86 35.2431 13.048ZM52.9102 17.728V18.808H43.2382V17.728H47.4142V16H44.3902V12.544H50.4862V11.224H44.3662V10.168H51.7582V13.576H45.6862V14.944H51.9982V16H48.6862V17.728H52.9102ZM64.3407 9.448V11.8H65.8287V12.88H64.3407V15.112H63.0207V9.448H64.3407ZM56.4207 14.824V10.12H61.1247V11.152H57.7167V13.768C59.7087 13.756 60.8127 13.684 62.0607 13.432L62.2047 14.488C60.8247 14.764 59.5887 14.824 57.2847 14.824H56.4207ZM57.4767 19.888V15.64H58.7727V16.744H63.0207V15.64H64.3407V19.888H57.4767ZM58.7727 18.832H63.0207V17.752H58.7727V18.832ZM74.9758 9.472V17.272H73.6798V14.608H71.5438V15.568H66.5998V10.168H67.8958V11.872H70.2718V10.168H71.5438V11.296H73.6798V9.472H74.9758ZM67.8958 14.536H70.2718V12.856H67.8958V14.536ZM67.9918 19.84V16.504H69.3118V18.784H75.2158V19.84H67.9918ZM71.5438 13.552H73.6798V12.352H71.5438V13.552ZM81.4109 11.128V12.184H76.2269V11.128H78.1949V9.76H79.4669V11.128H81.4109ZM76.5149 15.208C76.5149 13.756 77.4869 12.736 78.8429 12.736C80.1749 12.736 81.1349 13.756 81.1469 15.208C81.1349 16.672 80.1749 17.704 78.8429 17.704C77.4869 17.704 76.5149 16.672 76.5149 15.208ZM77.6669 15.208C77.6669 16.06 78.1469 16.588 78.8429 16.576C79.5149 16.588 79.9949 16.06 79.9949 15.208C79.9949 14.368 79.5149 13.828 78.8429 13.816C78.1469 13.828 77.6669 14.368 77.6669 15.208ZM81.8429 19.552V9.664H83.0669V13.816H84.0989V9.448H85.3469V20.032H84.0989V14.872H83.0669V19.552H81.8429ZM98.6733 17.704V18.76H89.0013V17.704H93.1773V15.64H90.0573V10.144H91.3533V11.896H96.2733V10.144H97.5693V15.64H94.4493V17.704H98.6733ZM91.3533 14.584H96.2733V12.928H91.3533V14.584ZM102.444 12.232C102.432 13.936 103.02 15.724 104.46 16.624L103.74 17.632C102.78 17.056 102.168 16.06 101.82 14.896C101.436 16.168 100.752 17.248 99.7564 17.848L98.9644 16.888C100.488 15.952 101.172 14.092 101.172 12.28V10.384H102.444V12.232ZM103.332 14.176V13.096H104.844V9.64H106.068V19.528H104.844V14.176H103.332ZM107.004 20.032V9.448H108.252V20.032H107.004ZM118.936 17.68V18.76H109.264V17.68H111.496V15.016C110.656 14.524 110.14 13.768 110.152 12.832C110.14 11.14 111.796 10.024 114.088 10.024C116.356 10.024 118.024 11.14 118.024 12.832C118.024 13.756 117.52 14.5 116.704 14.992V17.68H118.936ZM111.424 12.832C111.412 13.912 112.492 14.596 114.088 14.608C115.648 14.596 116.74 13.912 116.752 12.832C116.74 11.716 115.648 11.056 114.088 11.056C112.492 11.056 111.412 11.716 111.424 12.832ZM112.792 17.68H115.384V15.484C114.988 15.568 114.544 15.616 114.088 15.616C113.632 15.616 113.188 15.568 112.792 15.484V17.68ZM121.579 10.504L121.435 16.504H120.115L119.971 10.504H121.579ZM119.851 18.184C119.851 17.692 120.271 17.284 120.763 17.272C121.255 17.284 121.675 17.692 121.675 18.184C121.675 18.688 121.255 19.096 120.763 19.096C120.271 19.096 119.851 18.688 119.851 18.184Z" fill="white"/>
<path d="M21.1316 34.4805L18 29H26L22.8681 34.4805C22.4842 35.1523 21.5155 35.1524 21.1316 34.4805Z" fill="#282831"/>
</svg>
