<svg width="24" height="24" viewBox="0 0 24 24" fill="none" xmlns="http://www.w3.org/2000/svg">
<path fill-rule="evenodd" clip-rule="evenodd" d="M20 8.90002C20.5523 8.90002 21 9.34774 21 9.90002V17.9C21 19.5569 19.6569 20.9 18 20.9H6C4.34315 20.9 3 19.5569 3 17.9V9.90002C3 9.34774 3.44772 8.90002 4 8.90002H20ZM14.6 15.4196C15 15.1887 15 14.6114 14.6 14.3804L11.15 12.3886C10.75 12.1576 10.25 12.4463 10.25 12.9082L10.25 16.8919C10.25 17.3538 10.75 17.6424 11.15 17.4115L14.6 15.4196Z" fill="#42424A"/>
<path fill-rule="evenodd" clip-rule="evenodd" d="M8.0522 6.68869C8.20677 7.02017 7.96479 7.4 7.59905 7.4H4C3.44772 7.4 3 6.95228 3 6.4V6C3 4.34315 4.34315 3 6 3H6.0136C6.20792 3 6.38463 3.11258 6.46675 3.28869L8.0522 6.68869ZM10.659 7.4C10.348 7.4 10.0653 7.21987 9.9339 6.93809L8.42923 3.71131C8.27466 3.37983 8.51664 3 8.88238 3H12.8225C13.1334 3 13.4161 3.18013 13.5475 3.46191L15.0522 6.68869C15.2068 7.02017 14.9648 7.4 14.599 7.4H10.659ZM17.6589 7.4C17.348 7.4 17.0653 7.21987 16.9339 6.93809L15.4292 3.71131C15.2747 3.37983 15.5166 3 15.8824 3H18C19.6569 3 21 4.34315 21 6V6.4C21 6.95228 20.5523 7.4 20 7.4H17.6589Z" fill="#42424A"/>
</svg>
