<svg width="24" height="24" viewBox="0 0 24 24" fill="none" xmlns="http://www.w3.org/2000/svg">
<path fill-rule="evenodd" clip-rule="evenodd" d="M3 5C3 3.89543 3.89543 3 5 3H18C19.1046 3 20 3.89543 20 5V13.3889V15.1667V16.2222V16.2222C20 16.7745 19.5523 17.2222 19 17.2222H5.88889C5.39797 17.2222 5 17.6201 5 18.1111V18.1112C5.00006 18.602 5.39801 18.9999 5.88889 18.9999H19C19.5523 18.9999 20 19.4477 20 19.9999C20 20.5522 19.5523 20.9999 19 20.9999H5.88889C4.29344 20.9999 3.00006 19.7066 3 18.1112V18.1111V15.2778H3.00304C3.00102 15.241 3 15.204 3 15.1667V5ZM14.3 10.6928C14.8333 10.3849 14.8333 9.6151 14.3 9.30718L10.7 7.22872C10.1667 6.9208 9.5 7.3057 9.5 7.92154L9.5 12.0785C9.5 12.6943 10.1667 13.0792 10.7 12.7713L14.3 10.6928Z" fill="#DCDCE9"/>
</svg>
