<svg width="10" height="10" viewBox="0 0 10 10" fill="none" xmlns="http://www.w3.org/2000/svg">
<path d="M1.45825 7.47009C1.45825 7.12491 1.73807 6.84509 2.08325 6.84509H7.91659C8.26176 6.84509 8.54159 7.12491 8.54159 7.47009V7.9167C8.54159 8.26188 8.26176 8.5417 7.91659 8.5417H2.08325C1.73807 8.5417 1.45825 8.26188 1.45825 7.9167V7.47009Z" fill="#FF445A"/>
<path d="M2.65768 2.13634C2.73232 1.74303 3.07608 1.45837 3.47641 1.45837H6.52336C6.92369 1.45837 7.26745 1.74303 7.34208 2.13634L8.00503 5.6297C8.05374 5.88639 7.85693 6.12406 7.59567 6.12406H2.4041C2.14284 6.12406 1.94603 5.88639 1.99474 5.6297L2.65768 2.13634Z" fill="#FF445A"/>
</svg>
