<svg width="24" height="24" viewBox="0 0 24 24" fill="none" xmlns="http://www.w3.org/2000/svg">
<path d="M3.5 17.9281C3.5 17.0997 4.17157 16.4281 5 16.4281H19C19.8284 16.4281 20.5 17.0997 20.5 17.9281V19C20.5 19.8284 19.8284 20.5 19 20.5H5C4.17157 20.5 3.5 19.8284 3.5 19V17.9281Z" fill="#42424A"/>
<path d="M6.37869 5.12711C6.55782 4.18318 7.38284 3.5 8.34362 3.5H15.6563C16.6171 3.5 17.4421 4.18318 17.6212 5.12711L19.2123 13.5112C19.3292 14.1272 18.8569 14.6976 18.2298 14.6976H5.77009C5.14305 14.6976 4.67071 14.1272 4.78762 13.5112L6.37869 5.12711Z" fill="#42424A"/>
</svg>
