<svg width="53" height="29" viewBox="0 0 53 29" fill="none" xmlns="http://www.w3.org/2000/svg">
<rect width="53" height="29" rx="8" fill="#FFE4E8"/>
<path d="M13.168 10.0469C15.4414 10.0527 17.123 11.1836 17.1172 12.9062C17.123 14.4941 15.7578 15.5547 13.8125 15.748V17.6875H18.0312V18.7539H8.35156V17.6875H12.5234V15.748C10.6016 15.5547 9.23633 14.4941 9.24219 12.9062C9.23633 11.1836 10.9121 10.0527 13.168 10.0469ZM10.5195 12.9062C10.5137 14.0488 11.6211 14.7344 13.168 14.7344C14.7383 14.7344 15.8398 14.0488 15.8398 12.9062C15.8398 11.7988 14.7383 11.0957 13.168 11.1016C11.6211 11.0957 10.5137 11.7988 10.5195 12.9062ZM26.8381 9.44922V11.8047H28.3147V12.8828H26.8381V15.1094H25.5373V9.44922H26.8381ZM18.928 14.8281V10.1055H23.6389V11.1602H20.217V13.7617C22.2092 13.7559 23.3166 13.6973 24.5764 13.4219L24.717 14.4766C23.3284 14.7637 22.0979 14.8223 19.7834 14.8281H18.928ZM19.9709 19.8906V15.6367H21.2717V16.7266H25.5373V15.6367H26.8381V19.8906H19.9709ZM21.2717 18.8359H25.5373V17.7578H21.2717V18.8359Z" fill="#FF445A"/>
<path d="M35 10.5L43 18.5" stroke="#FF445A" stroke-width="2" stroke-linecap="round"/>
<path d="M35 18.5L43 10.5" stroke="#FF445A" stroke-width="2" stroke-linecap="round"/>
</svg>
